<?xml version="1.0" encoding="utf-8"?>
<!-- Generator: Adobe Illustrator 19.1.0, SVG Export Plug-In . SVG Version: 6.00 Build 0)  -->
<svg version="1.1" id="Ebene_1" xmlns="http://www.w3.org/2000/svg" xmlns:xlink="http://www.w3.org/1999/xlink" x="0px" y="0px"
	 viewBox="0 0 169 22" style="enable-background:new 0 0 169 22;" xml:space="preserve">
<style type="text/css">
	.st0{fill:#FFFFFF;}
</style>
<g>
	<g>
		<g>
			<path class="st0" d="M10.2,20.7c-3.5,0-6.8-2.8-6.8-9.8c0-7.2,3.5-9.8,6.8-9.8c3.2,0,6.8,2.6,6.8,9.8
				C16.9,17.9,13.7,20.7,10.2,20.7 M10.4,21.9c5.7,0,10.4-4.2,10.4-10.9c0-7.3-5.2-11-10.4-11C5.2,0,0,3.7,0,11
				C0,17.7,4.6,21.9,10.4,21.9"/>
		</g>
		<g>
			<path class="st0" d="M27.8,5.8c0-0.9,0.3-0.9,1.3-0.9c1.4,0,6,0.1,6,3.9c0,4.1-4.2,4.1-5.4,4.1c-0.7,0-1.3,0-1.9-0.1V5.8z
				 M22.1,4.4c2.3,0.2,2.7,0.5,2.7,2.4v11.7c0,1.9,0,2.6-2.7,2.7v0.5h8.9v-0.5c-2.4-0.1-3-0.5-3-2.4v-4.9c0.8,0.1,1.4,0.1,2.1,0.1
				c3.3,0,5.4-0.5,6.7-1.6c0.5-0.4,1.9-1.5,1.9-3.6c0-3.4-3.9-4.8-8.3-4.8h-8.4V4.4z"/>
		</g>
		<g>
			<path class="st0" d="M56.3,21.7H39.2v-0.5c2-0.1,2.8-0.4,2.8-2.4v-12c0-2.1-0.8-2.3-2.8-2.4V3.9H56l0.1,3.8h-0.8
				c-0.5-2.4-1.3-2.8-4.8-2.8h-4.3c-0.7,0-1,0-1,0.9v6H50c2.8,0,3.1-0.6,3.5-2.6h0.7v6.3h-0.7c-0.4-2.2-0.9-2.5-3.5-2.6l-4.9-0.1
				v6.7c0,1.1,0,1.1,4.7,1.1c4,0,5.5-0.8,6.9-3.5h0.9L56.3,21.7z"/>
		</g>
		<g>
			<path class="st0" d="M80.4,4.4c-2,0.2-3,0.3-3,3.4V22h-0.5l-14-14.8h-0.1v10.5c0,2.8,0.7,3.4,3,3.5v0.5h-7.5v-0.5
				c2.4-0.1,3.1-0.5,3.1-3.5V5.9c-1.3-1.3-1.8-1.5-3.1-1.5V3.9h5.4l12.1,13H76v-9c0-3.1-0.9-3.3-3-3.4V3.9h7.5V4.4z"/>
		</g>
		<g>
			<path class="st0" d="M96.7,21.7h-10v-0.5c3.1-0.1,3.2-0.9,3.4-3.5V1.9h-2.4c-3.8,0-4.7,0.7-5.5,4.4h-0.8l0.2-5.7h20.1l0.2,5.7
				h-0.8c-0.7-3.8-1.7-4.4-5.5-4.4h-2.2v16.2c0,2.3,0.4,3,3.3,3.1V21.7z"/>
		</g>
		<g>
			<path class="st0" d="M120.1,21.7h-17.1v-0.5c2-0.1,2.8-0.4,2.8-2.4v-12c0-2.1-0.8-2.3-2.8-2.4V3.9h16.8l0.1,3.8h-0.8
				c-0.5-2.4-1.3-2.8-4.8-2.8H110c-0.7,0-1,0-1,0.9v6h4.9c2.8,0,3.1-0.6,3.5-2.6h0.7v6.3h-0.7c-0.4-2.2-0.9-2.5-3.5-2.6l-4.9-0.1
				v6.7c0,1.1,0,1.1,4.7,1.1c4,0,5.5-0.8,6.9-3.5h0.9L120.1,21.7z"/>
		</g>
		<g>
			<path class="st0" d="M143.5,4.4c-1.7,0.1-2.5,0.2-4.7,2.5l-4.6,4.9l6.1,7.4c1.2,1.5,1.9,1.9,3.5,2v0.5h-9.4v-0.5
				c1.6-0.1,2.4-0.1,2.4-0.9c0-0.5-1.1-1.9-1.6-2.6l-3-3.8l-3.8,4c-0.7,0.7-1.6,1.8-1.6,2.3c0,0.9,1.2,0.9,2.4,1v0.5h-7.4v-0.5
				c1.7-0.1,2.1-0.5,4.6-3.1l5-5.2l-3.5-4.3c-3.2-4-3.9-4.1-5.7-4.2V3.9h9.6v0.5c-1.7,0-2.4,0-2.4,0.9c0,0.5,0.6,1.4,2.7,4l1.3,1.6
				l3.6-3.7c0.7-0.8,1.3-1.3,1.3-1.8c0-0.8-1.1-0.9-2.2-0.9V3.9h7.5V4.4z"/>
		</g>
		<g>
			<path class="st0" d="M157.9,21.7h-9.3v-0.5c2.9-0.1,3-0.7,3-2.7V5h-1.2c-3.5,0-4.3,0.5-5,3.5h-0.8l0.2-4.6h16.8l0.2,4.6h-0.8
				c-0.7-3-1.6-3.5-5-3.5h-1.2v13.8c0,1.8,0.4,2.3,3,2.4V21.7z"/>
		</g>
	</g>
	<g>
		<path class="st0" d="M165.4,0.7V1h-1v2.6h-0.4V1h-1V0.7H165.4z"/>
		<path class="st0" d="M165.7,0.7h0.6l0.9,2.5l0.9-2.5h0.6v3h-0.4V1.9c0-0.1,0-0.2,0-0.3c0-0.1,0-0.3,0-0.5l-0.9,2.5H167l-0.9-2.5
			v0.1c0,0.1,0,0.2,0,0.3c0,0.2,0,0.3,0,0.3v1.8h-0.4V0.7z"/>
	</g>
</g>
<g>
</g>
<g>
</g>
<g>
</g>
<g>
</g>
<g>
</g>
<g>
</g>
<g>
</g>
<g>
</g>
<g>
</g>
<g>
</g>
<g>
</g>
<g>
</g>
<g>
</g>
<g>
</g>
<g>
</g>
</svg>
