<svg id="Layer_1" data-name="Layer 1" xmlns="http://www.w3.org/2000/svg" viewBox="0 0 24 24"><title>add_more_md</title><rect x="2" y="10" width="17" height="2" style="fill:#666766"/><path d="M20.09,12H1.91a1,1,0,0,1,0-2H20.09a1,1,0,0,1,0,2Z" style="fill:#666766"/><rect x="10" y="3" width="2" height="17" style="fill:#666766"/><path d="M11,21.09a1,1,0,0,1-1-1V1.91a1,1,0,0,1,2,0V20.09A1,1,0,0,1,11,21.09Z" style="fill:#666766"/><path d="M19.16,20.55l-3.07-3.08a.49.49,0,1,1,.7-.7l2.37,2.36,2.37-2.36a.49.49,0,1,1,.7.7Z" style="fill:#666766"/></svg>