<svg id="screens" xmlns="http://www.w3.org/2000/svg" viewBox="0 0 24 24"><defs><style>.cls-1{fill:#f05822;}</style></defs><title>announcement24</title><path class="cls-1" d="M16.81,4.74a.55.55,0,0,0,.25,0,.5.5,0,0,0,.41-.3l1.3-2.94a.5.5,0,1,0-.92-.41l-1.3,2.94A.51.51,0,0,0,16.81,4.74Z"/><path class="cls-1" d="M23.57,10.47,20.47,10a.51.51,0,0,0-.57.43.5.5,0,0,0,.43.57l3.1.45h.12A.5.5,0,0,0,24,11,.51.51,0,0,0,23.57,10.47Z"/><path class="cls-1" d="M21.24,6a.51.51,0,0,0-.69-.19L18.4,7a.51.51,0,0,0-.19.69.49.49,0,0,0,.49.25.35.35,0,0,0,.19-.06l2.16-1.22A.51.51,0,0,0,21.24,6Z"/><path class="cls-1" d="M4.86,16.39c-.69-.67-1.42-.64-1.87-.17a1.26,1.26,0,0,0,.22,1.87l4.13,5c.69.67,1.88,0,2.33-.45a1.6,1.6,0,0,0,.09-2.2Z"/><path class="cls-1" d="M11.63,1.22c-.24,3.07-.89,5.33-4.89,10.46l2.16,4c6.44-.52,8.74.2,11.43,1.69.73.41,1.36-.54,1-1.29l-4-7.49-4-7.49C12.84.39,11.69.39,11.63,1.22Z"/><path class="cls-1" d="M1.67,17.16a2.13,2.13,0,0,1,.6-1.63,2.09,2.09,0,0,1,1.51-.65,2.51,2.51,0,0,1,1.78.79l1,.84c.49-.19,1-.36,1.4-.51L6,12.31a40.44,40.44,0,0,1-4.88,3.23l-.4.21a1.39,1.39,0,0,0-.51,1.89l.14.27a1.39,1.39,0,0,0,1.86.61l0,0A2.52,2.52,0,0,1,1.67,17.16Z"/></svg>