<svg id="screens" xmlns="http://www.w3.org/2000/svg" viewBox="0 0 24 24"><defs><style>.cls-1{fill:#fff;}</style></defs><title>announcement24_li</title><path class="cls-1" d="M17.53,5.57a.47.47,0,0,0,.25.07.5.5,0,0,0,.43-.25l1.58-2.77a.5.5,0,0,0-.19-.68.5.5,0,0,0-.68.19L17.35,4.89A.49.49,0,0,0,17.53,5.57Z"/><path class="cls-1" d="M23.62,11.9l-3-.75a.48.48,0,0,0-.6.36.5.5,0,0,0,.36.61l3,.75h.12A.5.5,0,0,0,24,12.5.5.5,0,0,0,23.62,11.9Z"/><path class="cls-1" d="M21.78,7.22A.51.51,0,0,0,21.12,7L18.87,8a.49.49,0,0,0-.25.65.49.49,0,0,0,.45.3.45.45,0,0,0,.2,0l2.25-1A.5.5,0,0,0,21.78,7.22Z"/><path class="cls-1" d="M16.58,9.53l-2.64-6a1.13,1.13,0,0,0-1.83.08l.51,1.16A11.61,11.61,0,0,1,8,10.3l2.25,5a13.07,13.07,0,0,1,7.16.37l.53,1.2c.76.21,1.54-.75,1.3-1.3Z"/><path class="cls-1" d="M5.37,15.91a1.1,1.1,0,0,0-1.65-.15,1.11,1.11,0,0,0,.19,1.65l3.63,4.46c.61.6,1.67,0,2.07-.39a1.41,1.41,0,0,0,.08-1.94Z"/><path class="cls-1" d="M4.42,14.47a2.35,2.35,0,0,1,1.64.73l1.38,1.16c1-.37,1.21-.5,1.85-.76L7.12,10.82c-3,1.75-6.31,3.39-6.31,3.39a1.15,1.15,0,0,0-.7,1.58l.36.81.46,1c.35.81,1,.47,1.95.11A1.87,1.87,0,0,1,3,15.07,1.91,1.91,0,0,1,4.42,14.47Z"/></svg>