<?xml version="1.0" encoding="utf-8"?>
<!-- Generator: Adobe Illustrator 19.1.0, SVG Export Plug-In . SVG Version: 6.00 Build 0)  -->
<!DOCTYPE svg PUBLIC "-//W3C//DTD SVG 1.1//EN" "http://www.w3.org/Graphics/SVG/1.1/DTD/svg11.dtd">
<svg version="1.1" id="Layer_1" xmlns="http://www.w3.org/2000/svg" xmlns:xlink="http://www.w3.org/1999/xlink" x="0px" y="0px"
	 viewBox="3 -3 30 30" enable-background="new 3 -3 30 30" xml:space="preserve">
<g>
	<g>
		<path fill="#231F20" d="M18,27C9.729,27,3,20.27,3,12S9.729-3,18-3s15,6.729,15,15S26.271,27,18,27z M18-1.965
			C10.299-1.965,4.034,4.299,4.034,12S10.299,25.964,18,25.964S31.966,19.7,31.966,12S25.701-1.965,18-1.965z"/>
	</g>
	<path fill="#231F20" d="M18.731,12l4.548-4.547c0.202-0.202,0.202-0.53,0-0.732s-0.528-0.203-0.731,0L18,11.268L13.451,6.72
		c-0.202-0.203-0.529-0.201-0.731,0c-0.202,0.202-0.202,0.53,0,0.732L17.269,12l-4.548,4.547c-0.202,0.202-0.202,0.53,0,0.732
		c0.101,0.101,0.233,0.152,0.366,0.152c0.132,0,0.264-0.05,0.365-0.152L18,12.731l4.549,4.548c0.101,0.101,0.233,0.152,0.365,0.152
		c0.133,0,0.265-0.051,0.366-0.152c0.202-0.202,0.202-0.53,0-0.732L18.731,12z"/>
</g>
</svg>
