<?xml version="1.0" encoding="utf-8"?>
<!-- Generator: Adobe Illustrator 21.0.0, SVG Export Plug-In . SVG Version: 6.00 Build 0)  -->
<!DOCTYPE svg PUBLIC "-//W3C//DTD SVG 1.1//EN" "http://www.w3.org/Graphics/SVG/1.1/DTD/svg11.dtd">
<svg version="1.1" id="Layer_1" xmlns="http://www.w3.org/2000/svg" xmlns:xlink="http://www.w3.org/1999/xlink" x="0px" y="0px"
	 viewBox="0 0 24 24" enable-background="new 0 0 24 24" xml:space="preserve">
<g>
	<g>
		<g>
			<path fill="#666666" d="M21.333,24H2.667C1.193,24,0,22.807,0,21.333V2.667C0,1.193,1.193,0,2.667,0h18.667
				C22.807,0,24,1.193,24,2.667v18.667C24,22.807,22.807,24,21.333,24z"/>
		</g>
	</g>
	<path fill="#FFFFFF" d="M9.525,18.385l-4.693-4.693c-0.521-0.521-0.521-1.364,0-1.885s1.364-0.521,1.885,0l2.807,2.807l7.368-7.368
		c0.521-0.521,1.364-0.521,1.885,0s0.521,1.364,0,1.885L9.525,18.385z"/>
</g>
</svg>
