<?xml version="1.0" encoding="utf-8"?>
<!-- Generator: Adobe Illustrator 23.1.0, SVG Export Plug-In . SVG Version: 6.00 Build 0)  -->
<svg version="1.1" id="Layer_1" xmlns="http://www.w3.org/2000/svg" xmlns:xlink="http://www.w3.org/1999/xlink" x="0px" y="0px"
	 viewBox="0 0 160 113" style="enable-background:new 0 0 160 113;" xml:space="preserve">
<style type="text/css">
	.st0{fill:#EBF1F2;}
	.st1{fill:#D7E2E5;}
	.st2{fill:#9BAFBA;}
	.st3{fill:#666666;}
	.st4{fill:#CACACA;}
	.st5{fill:#A8A8A8;}
</style>
<path class="st0" d="M130.2,64.7c16.5,0,29.8-13.4,29.8-29.9c0-16.5-13.3-29.9-29.8-29.9s-29.8,13.4-29.8,29.9
	C100.4,51.3,113.7,64.7,130.2,64.7z"/>
<path class="st1" d="M34.3,112.5c9.4,0,17-7.6,17-17.1c0-9.4-7.6-17.1-17-17.1c-9.4,0-17,7.6-17,17.1
	C17.2,104.9,24.9,112.5,34.3,112.5z"/>
<path class="st2" d="M17.2,88.9c-4.1,0-7.5-3.4-7.5-7.7c0-4.2,3.4-7.7,7.5-7.7c4.1,0,7.5,3.4,7.5,7.7C24.6,85.4,21.3,88.9,17.2,88.9
	z M17.2,75.2c-3.2,0-5.9,2.7-5.9,6c0,3.3,2.6,6,5.9,6s5.9-2.7,5.9-6C23,77.9,20.4,75.2,17.2,75.2z"/>
<path class="st2" d="M17.2,98.8c0.6,0,1.2-0.5,1.2-1.2c0-0.7-0.5-1.2-1.2-1.2c-0.6,0-1.2,0.5-1.2,1.2C16,98.3,16.5,98.8,17.2,98.8z"
	/>
<path class="st2" d="M29.3,93.7c0.5-0.5,0.5-1.2,0-1.7c-0.5-0.5-1.2-0.5-1.7,0c-0.5,0.5-0.5,1.2,0,1.7
	C28.1,94.1,28.9,94.1,29.3,93.7z"/>
<path class="st2" d="M33.1,82.4c0.6,0,1.2-0.5,1.2-1.2c0-0.7-0.5-1.2-1.2-1.2c-0.6,0-1.2,0.5-1.2,1.2C32,81.9,32.5,82.4,33.1,82.4z"
	/>
<path class="st2" d="M29.3,70.4c0.5-0.5,0.5-1.2,0-1.7c-0.5-0.5-1.2-0.5-1.7,0c-0.5,0.5-0.5,1.2,0,1.7
	C28.1,70.9,28.8,70.9,29.3,70.4z"/>
<path class="st2" d="M17.2,66c0.6,0,1.2-0.5,1.2-1.2c0-0.7-0.5-1.2-1.2-1.2c-0.6,0-1.2,0.5-1.2,1.2C16,65.4,16.5,66,17.2,66z"/>
<path class="st2" d="M6.7,70.5c0.5-0.5,0.5-1.2,0-1.7c-0.5-0.5-1.2-0.5-1.7,0c-0.5,0.5-0.5,1.2,0,1.7C5.5,70.9,6.2,70.9,6.7,70.5z"
	/>
<path class="st2" d="M1.2,82.4c0.6,0,1.2-0.5,1.2-1.2c0-0.7-0.5-1.2-1.2-1.2C0.5,80,0,80.5,0,81.2C0,81.9,0.5,82.4,1.2,82.4z"/>
<path class="st2" d="M6.7,93.7c0.5-0.5,0.5-1.2,0-1.7c-0.5-0.5-1.2-0.5-1.7,0c-0.5,0.5-0.5,1.2,0,1.7C5.5,94.2,6.2,94.2,6.7,93.7z"
	/>
<path class="st3" d="M120.3,27.1H97c-0.4,0-0.8-0.4-0.8-0.8V1.5c0-0.4,0.4-0.8,0.8-0.8c0.4,0,0.8,0.4,0.8,0.8v24h22.5
	c0.4,0,0.8,0.4,0.8,0.8C121.1,26.7,120.7,27.1,120.3,27.1z"/>
<path class="st4" d="M150.1,20c-3.3,0-6.1-2.7-6.1-6.1s2.7-6.1,6.1-6.1c3.3,0,6.1,2.7,6.1,6.1S153.5,20,150.1,20z M150.1,9.2
	c-2.6,0-4.7,2.1-4.7,4.7s2.1,4.7,4.7,4.7c2.6,0,4.7-2.1,4.7-4.7S152.7,9.2,150.1,9.2z"/>
<path class="st5" d="M102.4,36.4h-2.8v-1.6h2.8V36.4z M94.7,36.4h-4.9v-1.6h4.9V36.4z M85,36.4h-4.9v-1.6H85V36.4z M75.3,36.4h-4.9
	v-1.6h4.9V36.4z M65.5,36.4h-4.9v-1.6h4.9V36.4z M55.8,36.4h-4.9v-1.6h4.9V36.4z M46.1,36.4h-4.9v-1.6h4.9V36.4z M36.4,36.4h-4.9
	v-1.6h4.9V36.4z M26.6,36.4h-4.9v-1.6h4.9V36.4z"/>
<path class="st3" d="M121.1,102.3H43l-0.8-0.8V72.8c0-0.4,0.4-0.8,0.8-0.8s0.8,0.4,0.8,0.8v27.9h76.4l-0.1-74.5L96.9,1.6H43.8
	l-0.1,55.5c0,0.4-0.4,0.8-0.8,0.8h0c-0.4,0-0.8-0.4-0.8-0.8l0.1-56.3L43,0h54.3l0.6,0.3l23.7,25.1l0.2,0.6l0.1,75.6L121.1,102.3z"/>
<path class="st5" d="M150.3,89.2h-4.9v-1.6h4.9v-3h1.6v3C151.9,88.5,151.2,89.2,150.3,89.2z M140.6,89.2h-4.9v-1.6h4.9V89.2z
	 M130.8,89.2H126v-1.6h4.9V89.2z M121.1,89.2h-4.9v-1.6h4.9V89.2z M111.4,89.2h-4.9v-1.6h4.9V89.2z M101.7,89.2h-4.9v-1.6h4.9V89.2z
	 M91.9,89.2h-4.9v-1.6h4.9V89.2z M82.2,89.2h-4.9v-1.6h4.9V89.2z M72.5,89.2h-0.8c-0.9,0-1.6-0.7-1.6-1.6v-2.8h1.6v2.8h0.8V89.2z
	 M71.7,80H70v-4.9h1.6V80z M151.9,79.8h-1.6v-4.9h1.6V79.8z M71.7,70.2H70v-4.9h1.6V70.2z M151.9,70h-1.6v-4.9h1.6V70z M71.7,60.5
	H70v-4.9h1.6V60.5z M151.9,60.2h-1.6v-4.9h1.6V60.2z M147.3,54.7h-4.9v-1.6h4.9V54.7z M137.6,54.7h-4.9v-1.6h4.9V54.7z M127.9,54.7
	H123v-1.6h4.9V54.7z M118.2,54.7h-4.9v-1.6h4.9V54.7z M108.4,54.7h-4.9v-1.6h4.9V54.7z M98.7,54.7h-4.9v-1.6h4.9V54.7z M89,54.7
	h-4.9v-1.6H89V54.7z M79.3,54.7h-4.9v-1.6h4.9V54.7z"/>
</svg>
