<?xml version="1.0" encoding="utf-8"?>
<!-- Generator: Adobe Illustrator 19.1.0, SVG Export Plug-In . SVG Version: 6.00 Build 0)  -->
<!DOCTYPE svg PUBLIC "-//W3C//DTD SVG 1.1//EN" "http://www.w3.org/Graphics/SVG/1.1/DTD/svg11.dtd">
<svg version="1.1" id="Layer_1" xmlns="http://www.w3.org/2000/svg" xmlns:xlink="http://www.w3.org/1999/xlink" x="0px" y="0px"
	 viewBox="0 0 24 24" enable-background="new 0 0 24 24" xml:space="preserve">
<g>
	<g>
		<g>
			<g>
				<path fill="#333333" d="M16,1l5,5v14c0,1.657-1.343,3-3,3H6c-1.657,0-3-1.343-3-3V4c0-1.657,1.343-3,3-3H16 M16.414,0H16H6
					C3.794,0,2,1.794,2,4v16c0,2.206,1.794,4,4,4h12c2.206,0,4-1.794,4-4V6V5.586l-0.293-0.293l-5-5L16.414,0L16.414,0z"/>
			</g>
		</g>
	</g>
	<rect x="5" y="13" fill="#333333" width="14" height="1"/>
	<rect x="5" y="7" fill="#333333" width="11" height="1"/>
	<rect x="5" y="16" fill="#333333" width="14" height="1"/>
	<rect x="5" y="10" fill="#333333" width="11" height="1"/>
</g>
</svg>
