<svg id="Layer_1" data-name="Layer 1" xmlns="http://www.w3.org/2000/svg" viewBox="0 0 16 16"><defs><style>.cls-1{fill:#fff;}.cls-2{fill:#333;}</style></defs><title>icons</title><path class="cls-1" d="M11,2.86H6.15c-.28,0-.51.42-.51.93s.23,1,.51,1H7.48l-1,7H5c-.28,0-.51.42-.51.93s.23,1,.51,1H9.86c.27,0,.5-.43.5-.94s-.23-1-.5-1H8.42l1-7H11c.27,0,.5-.43.5-.94S11.27,2.86,11,2.86Z"/><path class="cls-2" d="M11,2.36H6.15c-.28,0-.51.42-.51.93s.23,1,.51,1H7.48l-1,7H5c-.28,0-.51.42-.51.93s.23,1,.51,1H9.86c.27,0,.5-.43.5-.94s-.23-1-.5-1H8.42l1-7H11c.27,0,.5-.43.5-.94S11.27,2.36,11,2.36Z"/></svg>