<?xml version="1.0" encoding="utf-8"?>
<!-- Generator: Adobe Illustrator 23.0.6, SVG Export Plug-In . SVG Version: 6.00 Build 0)  -->
<svg version="1.1" id="Layer_1" xmlns="http://www.w3.org/2000/svg" xmlns:xlink="http://www.w3.org/1999/xlink" x="0px" y="0px"
	 viewBox="0 0 42 42" style="enable-background:new 0 0 42 42;" xml:space="preserve">
<style type="text/css">
	.st0{fill:#111B58;}
	.st1{fill:#FFFFFF;}
</style>
<path class="st0" d="M21,42c11.6,0,21-9.4,21-21C42,9.4,32.6,0,21,0C9.4,0,0,9.4,0,21C0,32.6,9.4,42,21,42z"/>
<rect x="12" y="12" class="st1" width="4" height="4"/>
<rect x="19" y="12" class="st1" width="4" height="4"/>
<rect x="26" y="12" class="st1" width="4" height="4"/>
<rect x="12" y="26" class="st1" width="4" height="4"/>
<rect x="19" y="26" class="st1" width="4" height="4"/>
<rect x="26" y="26" class="st1" width="4" height="4"/>
<rect x="12" y="19" class="st1" width="4" height="4"/>
<rect x="19" y="19" class="st1" width="4" height="4"/>
<rect x="26" y="19" class="st1" width="4" height="4"/>
</svg>
