<svg id="Layer_1" data-name="Layer 1" xmlns="http://www.w3.org/2000/svg" viewBox="0 0 42 42"><title>li_header_app_switcher42</title><rect x="11" y="11" width="5" height="5" style="fill:#fff"/><rect x="18.5" y="11" width="5" height="5" style="fill:#fff"/><rect x="26" y="11" width="5" height="5" style="fill:#fff"/><rect x="11" y="18.5" width="5" height="5" style="fill:#fff"/><rect x="18.5" y="18.5" width="5" height="5" style="fill:#fff"/><rect x="26" y="18.5" width="5" height="5" style="fill:#fff"/><rect x="11" y="26" width="5" height="5" style="fill:#fff"/><rect x="18.5" y="26" width="5" height="5" style="fill:#fff"/><rect x="26" y="26" width="5" height="5" style="fill:#fff"/><g id="Layer_1-2" data-name="Layer 1-2"><path d="M21,1A20,20,0,1,1,1,21,20.06,20.06,0,0,1,21,1m0-1A21,21,0,1,0,42,21,21,21,0,0,0,21,0Z" style="fill:#004a70"/></g></svg>