<?xml version="1.0" encoding="utf-8"?>
<!-- Generator: Adobe Illustrator 21.0.2, SVG Export Plug-In . SVG Version: 6.00 Build 0)  -->
<!DOCTYPE svg PUBLIC "-//W3C//DTD SVG 1.1//EN" "http://www.w3.org/Graphics/SVG/1.1/DTD/svg11.dtd">
<svg version="1.1" id="Layer_1" xmlns="http://www.w3.org/2000/svg" xmlns:xlink="http://www.w3.org/1999/xlink" x="0px" y="0px"
	 viewBox="0 0 42 42" style="enable-background:new 0 0 42 42;" xml:space="preserve">
<style type="text/css">
	.st0{fill:#999999;}
	.st1{fill:#FFFFFF;}
</style>
<title>Asset 3</title>
<g id="Layer_2">
	<g id="Layer_1-2">
		<path class="st0" d="M21,2c10.5,0,19,8.5,19,19s-8.5,19-19,19S2,31.5,2,21C2,10.5,10.5,2,21,2 M21,0C9.4,0,0,9.4,0,21
			s9.4,21,21,21s21-9.4,21-21S32.6,0,21,0z"/>
		<path class="st1" d="M22.1,18.9c1.5-1,2.8-1.9,2.8-3.6c0-1.6-1.3-3.1-3.9-3.1c-2.1-0.1-4,1-5.2,2.7L14.1,13
			c1.7-2.2,4.4-3.5,7.2-3.4c4,0,6.5,2.3,6.5,5.1s-1.9,4.1-3.7,5.3c-1.4,1-2.7,1.8-2.7,3.3c0,0.6,0.4,1.2,0.9,1.6l-2,0.9
			c-0.8-0.7-1.3-1.7-1.3-2.7C19,21,20.6,20,22.1,18.9z M20.9,28.8c1,0,1.8,0.8,1.8,1.8s-0.8,1.8-1.8,1.8c-1,0-1.8-0.8-1.8-1.8
			c0,0,0,0,0,0C19.1,29.6,19.9,28.8,20.9,28.8C20.9,28.7,20.9,28.7,20.9,28.8z"/>
	</g>
</g>
</svg>
