<?xml version="1.0" encoding="utf-8"?>
<!-- Generator: Adobe Illustrator 21.0.2, SVG Export Plug-In . SVG Version: 6.00 Build 0)  -->
<!DOCTYPE svg PUBLIC "-//W3C//DTD SVG 1.1//EN" "http://www.w3.org/Graphics/SVG/1.1/DTD/svg11.dtd">
<svg version="1.1" id="Layer_1" xmlns="http://www.w3.org/2000/svg" xmlns:xlink="http://www.w3.org/1999/xlink" x="0px" y="0px"
	 viewBox="0 0 42 42" style="enable-background:new 0 0 42 42;" xml:space="preserve">
<style type="text/css">
	.st0{fill:#7B9AB0;}
	.st1{fill:none;stroke:#FFFFFF;stroke-width:2;stroke-linecap:round;stroke-miterlimit:10;}
</style>
<title>Asset 2</title>
<g id="Layer_2">
	<g id="Layer_1-2">
		<path class="st0" d="M21,2c10.5,0,19,8.5,19,19s-8.5,19-19,19S2,31.5,2,21C2,10.5,10.5,2,21,2 M21,0C9.4,0,0,9.4,0,21
			s9.4,21,21,21s21-9.4,21-21S32.6,0,21,0z"/>
		<line class="st1" x1="30" y1="30" x2="24.7" y2="24.7"/>
		<path class="st1" d="M19.2,12c4,0,7.2,3.2,7.2,7.2s-3.2,7.2-7.2,7.2S12,23.2,12,19.2C12,15.2,15.2,12,19.2,12"/>
	</g>
</g>
</svg>
