<?xml version="1.0" encoding="utf-8"?>
<!-- Generator: Adobe Illustrator 21.1.0, SVG Export Plug-In . SVG Version: 6.00 Build 0)  -->
<svg version="1.1" id="Layer_1" xmlns="http://www.w3.org/2000/svg" xmlns:xlink="http://www.w3.org/1999/xlink" x="0px" y="0px"
	 viewBox="0 0 557.8 44.2" style="enable-background:new 0 0 557.8 44.2;" xml:space="preserve">
<style type="text/css">
	.st0{fill:#FFFFFF;}
</style>
<g>
	<g>
		<path class="st0" d="M254.6,9h-9.7V6.8h21.7V9H257v25.7h-2.4V9z"/>
		<path class="st0" d="M269.1,14.6h2.3v3.2c0.8-1.1,1.7-2,2.8-2.7s2.1-0.9,3.3-0.9c0.3,0,0.6,0,0.8,0c0.2,0,0.5,0,0.8,0.1l-0.3,2.1
			c-0.5-0.1-0.9-0.1-1.3-0.1c-0.7,0-1.4,0.1-2.1,0.4c-0.7,0.2-1.4,0.7-2,1.3c-0.6,0.5-1.1,1.2-1.5,1.9c-0.4,0.7-0.6,1.6-0.6,2.6
			v12.1h-2.2V14.6z"/>
		<path class="st0" d="M294.1,31.8c-0.3,0.4-0.7,0.8-1.2,1.2s-1,0.8-1.6,1.1s-1.3,0.6-2,0.7c-0.7,0.2-1.5,0.3-2.4,0.3
			c-2.1,0-3.8-0.5-5.1-1.5c-1.3-1-1.9-2.5-1.9-4.5c0-1.4,0.3-2.5,0.9-3.3s1.3-1.5,2.3-2c0.9-0.5,2-0.8,3.2-1s2.5-0.3,3.8-0.4
			l3.9-0.2v-0.6c0-2-0.4-3.4-1.2-4.3c-0.8-0.9-2.1-1.4-4.1-1.4c-1,0-1.8,0.1-2.4,0.2c-0.7,0.2-1.2,0.4-1.7,0.7
			c-0.4,0.3-0.8,0.6-1.1,1.1c-0.3,0.4-0.5,0.9-0.6,1.3l-2.1-0.3c0.7-3.3,3.4-4.9,7.9-4.9c1.4,0,2.6,0.2,3.5,0.5
			c1,0.3,1.7,0.8,2.3,1.5c0.6,0.6,1,1.4,1.3,2.3s0.4,2,0.4,3.2v13.2h-2.1V31.8z M294,24l-3.7,0.2c-1.5,0.1-2.8,0.2-3.8,0.4
			c-1,0.2-1.8,0.5-2.5,0.9c-0.6,0.4-1.1,0.9-1.3,1.5c-0.3,0.6-0.4,1.3-0.4,2.1c0,1.2,0.3,2.2,1,2.9c0.7,0.7,1.9,1.1,3.6,1.1
			c0.9,0,1.7-0.1,2.6-0.3c0.8-0.2,1.5-0.5,2.1-1c0.5-0.3,0.9-0.7,1.2-1c0.3-0.3,0.5-0.7,0.7-1c0.2-0.4,0.3-0.8,0.4-1.3
			s0.1-1,0.1-1.6L294,24L294,24z"/>
		<path class="st0" d="M315.7,31.7c-0.9,1.1-1.8,2-2.9,2.7c-1.1,0.6-2.5,1-4,1s-2.8-0.3-3.8-0.9c-1.1-0.6-2-1.3-2.7-2.3
			s-1.2-2.1-1.6-3.3c-0.3-1.3-0.5-2.6-0.5-4c0-3.4,0.8-6.1,2.4-8s3.8-2.9,6.6-2.9c1.1,0,2.2,0.2,3.4,0.7c1.1,0.5,2.2,1.4,3.2,2.7
			V6.8h2.3v27.8h-2.3v-2.9H315.7z M315.9,23.8c0-0.9-0.1-1.7-0.2-2.4c-0.1-0.7-0.3-1.2-0.5-1.8c-0.2-0.5-0.5-1-0.8-1.3
			c-0.4-0.4-0.8-0.8-1.2-1.1c-0.6-0.5-1.2-0.8-1.9-1c-0.7-0.2-1.3-0.3-2.1-0.3c-1,0-1.8,0.2-2.7,0.5c-0.8,0.3-1.5,0.8-2.1,1.5
			s-1,1.6-1.4,2.7c-0.3,1.1-0.5,2.5-0.5,4.1s0.2,3,0.6,4.1s0.9,2,1.5,2.7s1.3,1.1,2,1.4c0.7,0.3,1.5,0.4,2.2,0.4
			c0.8,0,1.5-0.1,2.2-0.3c0.6-0.2,1.3-0.5,2-1c0.9-0.7,1.6-1.5,2.1-2.6c0.5-1,0.7-2.3,0.7-3.9L315.9,23.8L315.9,23.8z"/>
		<path class="st0" d="M322.5,6.8h2.6v3.4h-2.6V6.8z M322.6,14.6h2.3v20.1h-2.3V14.6z"/>
		<path class="st0" d="M329.6,14.6h2.3v3.2c1.1-1.4,2.3-2.4,3.5-3s2.6-0.9,4-0.9c2.3,0,4,0.6,5.1,1.9s1.6,3.1,1.6,5.4v13.4h-2.3
			V21.9c0-2.1-0.4-3.6-1.1-4.5c-0.8-0.9-2-1.4-3.6-1.4c-0.8,0-1.6,0.1-2.5,0.4s-1.7,0.8-2.4,1.4c-0.8,0.7-1.4,1.4-1.8,2.1
			s-0.6,1.7-0.6,2.9v11.8h-2.3L329.6,14.6L329.6,14.6z"/>
		<path class="st0" d="M352.6,36.8c0.3,1.3,0.9,2.3,1.9,2.9s2.4,1,4.4,1c2.2,0,3.8-0.5,4.9-1.6c1-1.1,1.6-2.9,1.6-5.4v-3
			c-0.8,1.2-1.8,2.1-2.9,2.7c-1.1,0.6-2.5,1-4,1s-2.8-0.3-3.9-0.8s-2-1.3-2.7-2.2s-1.2-2-1.6-3.2s-0.5-2.5-0.5-3.8
			c0-1.6,0.2-3,0.6-4.3s1-2.4,1.8-3.3s1.7-1.6,2.8-2.1c1.1-0.5,2.4-0.7,3.8-0.7c1.1,0,2.2,0.2,3.4,0.7c1.1,0.5,2.2,1.4,3.2,2.6v-2.7
			h2.3v19.3c0,2.7-0.7,4.8-2.1,6.4c-1.4,1.6-3.6,2.3-6.6,2.3c-1.1,0-2.2-0.1-3.2-0.3s-1.8-0.5-2.6-1s-1.3-1.1-1.8-1.8
			s-0.8-1.6-0.9-2.7C350.5,36.8,352.6,36.8,352.6,36.8z M365.4,23.8c0-0.9,0-1.7-0.1-2.4c-0.1-0.7-0.2-1.2-0.5-1.8
			c-0.2-0.5-0.5-1-0.8-1.3c-0.3-0.4-0.7-0.8-1.2-1.1c-0.7-0.5-1.3-0.8-1.9-1s-1.3-0.3-2.1-0.3c-1,0-1.8,0.2-2.7,0.5
			s-1.5,0.8-2.1,1.5s-1.1,1.5-1.4,2.6s-0.5,2.3-0.5,3.8s0.2,2.8,0.6,3.8s0.9,1.9,1.5,2.5s1.3,1.1,2,1.4c0.8,0.3,1.5,0.4,2.3,0.4
			c0.9,0,1.6-0.1,2.2-0.3s1.2-0.5,1.9-1c0.9-0.7,1.6-1.5,2.1-2.6s0.7-2.4,0.7-4V23.8z"/>
		<path class="st0" d="M392.2,20.9h10.2v10.8c-0.7,0.6-1.4,1.2-2.3,1.7c-0.8,0.5-1.7,0.9-2.6,1.2s-1.8,0.5-2.7,0.7s-1.8,0.2-2.7,0.2
			c-2,0-3.8-0.3-5.3-1c-1.6-0.6-2.9-1.6-4-2.8c-1.1-1.2-2-2.8-2.5-4.6c-0.6-1.8-0.9-3.9-0.9-6.2c0-2.4,0.3-4.5,1-6.3
			c0.6-1.8,1.5-3.4,2.6-4.6s2.4-2.2,3.9-2.8s3.1-1,4.9-1c2.9,0,5.2,0.7,6.8,2c1.6,1.3,2.7,3.2,3.4,5.6l-2.2,0.5
			c-0.3-0.9-0.6-1.7-1-2.4c-0.4-0.7-0.9-1.4-1.5-1.9s-1.4-0.9-2.3-1.2c-0.9-0.3-1.9-0.4-3.2-0.4c-1.6,0-3,0.3-4.3,0.9
			c-1.2,0.6-2.3,1.5-3.1,2.6c-0.8,1.1-1.5,2.4-1.9,4c-0.4,1.5-0.6,3.2-0.6,5s0.2,3.5,0.6,5.1s1.1,2.8,1.9,4c0.9,1.1,1.9,2,3.2,2.6
			c1.3,0.6,2.8,0.9,4.5,0.9c1.5,0,2.9-0.2,4.3-0.6c1.4-0.4,2.7-1,3.8-1.9v-7.8h-8L392.2,20.9L392.2,20.9z"/>
		<path class="st0" d="M406.6,14.6h2.3v3.2c0.8-1.1,1.7-2,2.8-2.7s2.1-0.9,3.3-0.9c0.3,0,0.6,0,0.8,0c0.2,0,0.5,0,0.8,0.1l-0.3,2.1
			c-0.5-0.1-0.9-0.1-1.3-0.1c-0.7,0-1.4,0.1-2.1,0.4c-0.7,0.2-1.4,0.7-2,1.3c-0.6,0.5-1.1,1.2-1.5,1.9c-0.4,0.7-0.6,1.6-0.6,2.6
			v12.1h-2.3v-20H406.6z"/>
		<path class="st0" d="M418.8,6.8h2.6v3.4h-2.6V6.8z M418.9,14.6h2.3v20.1h-2.3V14.6z"/>
		<path class="st0" d="M440.8,31.7c-0.9,1.1-1.8,2-2.9,2.7c-1.1,0.6-2.5,1-4,1s-2.8-0.3-3.8-0.9c-1.1-0.6-2-1.3-2.7-2.3
			s-1.2-2.1-1.6-3.3c-0.3-1.3-0.5-2.6-0.5-4c0-3.4,0.8-6.1,2.4-8s3.8-2.9,6.6-2.9c1.1,0,2.2,0.2,3.4,0.7c1.1,0.5,2.2,1.4,3.2,2.7
			V6.8h2.3v27.8h-2.3v-2.9H440.8z M440.9,23.8c0-0.9-0.1-1.7-0.2-2.4c-0.1-0.7-0.3-1.2-0.5-1.8c-0.2-0.5-0.5-1-0.8-1.3
			c-0.4-0.4-0.8-0.8-1.2-1.1c-0.6-0.5-1.2-0.8-1.9-1c-0.7-0.2-1.3-0.3-2.1-0.3c-1,0-1.8,0.2-2.7,0.5c-0.8,0.3-1.5,0.8-2.1,1.5
			s-1,1.6-1.4,2.7c-0.3,1.1-0.5,2.5-0.5,4.1s0.2,3,0.6,4.1s0.9,2,1.5,2.7s1.3,1.1,2,1.4c0.7,0.3,1.5,0.4,2.2,0.4
			c0.8,0,1.5-0.1,2.2-0.3c0.6-0.2,1.3-0.5,2-1c0.9-0.7,1.6-1.5,2.1-2.6c0.5-1,0.7-2.3,0.7-3.9L440.9,23.8L440.9,23.8z"/>
		<path class="st0" d="M467.4,35.4c-1.8,0-3.5-0.3-5-0.9c-1.5-0.6-2.9-1.5-4-2.7c-1.1-1.2-2-2.7-2.6-4.6c-0.6-1.8-1-3.9-1-6.3
			s0.3-4.5,1-6.3c0.6-1.8,1.5-3.4,2.7-4.6c1.1-1.2,2.5-2.2,4-2.8c1.5-0.6,3.2-1,5-1s3.5,0.3,5,0.9s2.9,1.5,4,2.7s2,2.7,2.6,4.5
			s1,3.9,1,6.3s-0.3,4.5-0.9,6.4s-1.5,3.4-2.6,4.6c-1.1,1.2-2.4,2.2-4,2.8C470.9,35,469.2,35.4,467.4,35.4z M467.4,33.3
			c1.6,0,3.1-0.3,4.3-0.9c1.2-0.6,2.3-1.5,3.1-2.6c0.8-1.1,1.5-2.4,1.9-4c0.4-1.5,0.6-3.2,0.6-5.1c0-1.8-0.2-3.5-0.7-5.1
			c-0.4-1.5-1.1-2.9-1.9-4s-1.9-2-3.1-2.6s-2.7-0.9-4.3-0.9c-1.7,0-3.2,0.3-4.4,0.9c-1.3,0.6-2.3,1.5-3.1,2.6
			c-0.8,1.1-1.5,2.4-1.9,4c-0.4,1.5-0.6,3.2-0.6,5.1c0,1.8,0.2,3.5,0.6,5.1c0.4,1.5,1,2.9,1.9,4c0.8,1.1,1.9,2,3.2,2.6
			C464.2,32.9,465.7,33.3,467.4,33.3z"/>
		<path class="st0" d="M483.9,14.6h2.3v3.2c1.1-1.4,2.3-2.4,3.5-3s2.6-0.9,4-0.9c2.3,0,4,0.6,5.1,1.9s1.6,3.1,1.6,5.4v13.4h-2.3
			V21.9c0-2.1-0.4-3.6-1.1-4.5c-0.8-0.9-2-1.4-3.6-1.4c-0.8,0-1.6,0.1-2.5,0.4s-1.7,0.8-2.4,1.4c-0.8,0.7-1.4,1.4-1.8,2.1
			s-0.6,1.7-0.6,2.9v11.8h-2.3L483.9,14.6L483.9,14.6z"/>
		<path class="st0" d="M504.8,6.8h2.3v27.8h-2.3V6.8z"/>
		<path class="st0" d="M511.7,6.8h2.6v3.4h-2.6V6.8z M511.8,14.6h2.3v20.1h-2.3V14.6z"/>
		<path class="st0" d="M518.7,14.6h2.3v3.2c1.1-1.4,2.3-2.4,3.5-3s2.6-0.9,4-0.9c2.3,0,4,0.6,5.1,1.9s1.6,3.1,1.6,5.4v13.4h-2.3
			V21.9c0-2.1-0.4-3.6-1.1-4.5c-0.8-0.9-2-1.4-3.6-1.4c-0.8,0-1.6,0.1-2.5,0.4s-1.7,0.8-2.4,1.4c-0.8,0.7-1.4,1.4-1.8,2.1
			c-0.4,0.7-0.6,1.7-0.6,2.9v11.8h-2.3L518.7,14.6L518.7,14.6z"/>
		<path class="st0" d="M556.3,29.4c-0.3,1.7-1.1,3.2-2.5,4.3s-3.3,1.6-5.8,1.6c-2.9,0-5.1-0.9-6.7-2.8c-1.6-1.9-2.4-4.4-2.4-7.7
			c0-1.8,0.2-3.3,0.7-4.7s1.1-2.5,1.9-3.4c0.8-0.9,1.8-1.6,2.9-2.1c1.1-0.5,2.3-0.7,3.6-0.7c1.6,0,2.9,0.3,4,0.8s2,1.2,2.7,2.1
			s1.2,1.9,1.5,3.1s0.5,2.5,0.5,3.9v1.4h-15.4c0,1.1,0.1,2.2,0.4,3.2s0.7,1.9,1.3,2.6s1.3,1.3,2.1,1.8c0.9,0.4,1.8,0.6,3,0.6
			c1,0,1.9-0.1,2.6-0.3s1.3-0.5,1.8-0.8c0.5-0.4,0.8-0.8,1.1-1.3s0.5-1,0.6-1.6H556.3z M554.3,23.2c0-1.1-0.1-2.1-0.4-3
			c-0.2-0.9-0.6-1.7-1.1-2.4c-0.5-0.7-1.1-1.2-2-1.5c-0.8-0.4-1.8-0.5-2.9-0.5c-2,0-3.5,0.6-4.7,1.8s-1.9,3.1-2.1,5.6H554.3z"/>
	</g>
	<g>
		<g>
			<g>
				<path class="st0" d="M29.8,21.2c0,6.8-3.9,14.1-14.4,14.1c-7.5,0-14.3-4.2-14.3-14.1c0-8.2,5.1-14.5,15.4-14
					C27.4,7.9,29.8,16.3,29.8,21.2z M10.3,16c-1,1.5-1.3,3.3-1.3,5.1c0,4.2,2.1,7.9,6.5,7.9c4.3,0,6.4-3.5,6.4-7.6
					c0-2.9-0.7-5.2-2.2-6.6c-1.6-1.5-3.5-1.6-4.6-1.5C12.8,13.6,11.4,14.4,10.3,16z"/>
			</g>
			<g>
				<path class="st0" d="M99.8,10.3c0.8-0.8,1.3-1.4,2.7-2.1c1.2-0.5,3-0.9,4.9-0.9c1.6,0,3.4,0.3,4.8,1c2.8,1.5,3.5,3.9,3.5,8v18.3
					h-7.8V19.5c0-2.4-0.1-3.3-0.4-4c-0.6-1.4-2-2.1-3.5-2.1c-4.2,0-4.2,3.3-4.2,6.7v14.5h-7.9V7.9h7.9V10.3z"/>
			</g>
			<g>
				<path class="st0" d="M88.1,27.7c-0.7,1.5-3.1,7.6-13.3,7.6c-7.9,0-13.5-4.9-13.5-13.6c0-6.5,3.2-14.4,13.7-14.4
					c1.6,0,6.2-0.2,9.6,3.5c3.5,3.7,3.7,9,3.8,12H69.3c-0.1,3.3,1.8,6.7,6.1,6.7c4.3,0,5.8-2.8,6.8-4.7L88.1,27.7z M80.3,17.8
					c-0.2-1.1-0.4-2.6-1.5-3.8c-1-1-2.5-1.5-3.8-1.5c-1.9,0-3.2,0.9-4,1.7c-1.1,1.2-1.3,2.4-1.6,3.5L80.3,17.8L80.3,17.8z"/>
			</g>
			<g>
				<path class="st0" d="M197.9,13.5h5.2V7.9h-5.2V2.3h-7.8v5.6h-1.2l-3.6,5.5h4.8v12.7c0,2.6,0.1,4.5,1.1,6
					c1.7,2.5,4.7,2.6,7.4,2.6c1.4,0,2.5-0.2,4.2-0.4v-6.2l-2.8,0.1c-2.1,0-2.1-1.4-2.1-3L197.9,13.5L197.9,13.5z"/>
			</g>
			<g>
				<path class="st0" d="M119.6,2.3h7.8v5.6h8.2l-3.6,5.5h-4.6v11.9c-0.1,1.6-0.1,3,2.1,3l2.8-0.1v6.2c-1.7,0.3-2.7,0.4-4.2,0.4
					c-2.7,0-5.7-0.2-7.4-2.6c-1.1-1.6-1.1-3.5-1.1-6V2.3z"/>
			</g>
			<g>
				<g>
					<path class="st0" d="M210.3,13.5h-1V8.7h-1.8V7.9h4.5v0.8h-1.8v4.8H210.3z M217.9,13.5h-1v-3.4L217,9l-0.2,0.8l-1.1,3.6h-0.9
						l-1.1-3.6l-0.3-0.9l0.1,1.1v3.4h-0.9V7.9h1.3l1.4,4.4l1.4-4.4h1.3v5.6H217.9z"/>
				</g>
			</g>
			<g>
				<path class="st0" d="M160.3,27.7l-1.5,2.3c-1.4,2.1-4.1,5.2-11.6,5.2c-7.9,0-13.3-4.9-13.3-13.6c0-6.5,3.2-14.4,13.7-14.4
					c1.6,0,6.2-0.2,9.6,3.5c3.5,3.7,3.7,9,3.8,12h-19.1c-0.1,3.3,1.6,6.7,5.9,6.7c4.3,0,5.5-2.8,6.5-4.7L160.3,27.7z M152.9,17.8
					c-0.2-1.1-0.4-2.6-1.5-3.8c-1-1-2.5-1.5-3.8-1.5c-1.9,0-3.2,0.9-4,1.7c-1.1,1.2-1.3,2.4-1.6,3.5L152.9,17.8L152.9,17.8z"/>
			</g>
			<g>
				<polygon class="st0" points="187.1,34.6 177.3,20.6 185.5,7.9 176.5,7.9 172.7,13.9 168.5,7.9 159.5,7.9 168.3,20.6 159.3,34.6 
					168.2,34.6 173,27.2 178.2,34.6 				"/>
			</g>
			<g>
				<path class="st0" d="M40.7,10.3c0.8-1.1,3.2-3,7-3c6.6,0,11.2,5,11.2,13.9c0,5.5-2,14.1-11.5,14.1c-3.4,0-6.1-1.9-6.7-3v11.2
					h-7.9V7.9h7.9V10.3z M46,13.4c-1.4,0-2.9,0.6-4,2s-1.6,3.5-1.6,5.9c0,3.1,0.9,5.1,1.9,6.2c0.9,1,2.3,1.6,3.5,1.6
					c3.8,0,5.5-4,5.5-8c0-3.3-1-6.8-4.2-7.5C46.7,13.5,46.4,13.4,46,13.4z"/>
			</g>
		</g>
		<g>
			<rect x="229.7" y="0.7" class="st0" width="1.4" height="41.7"/>
		</g>
	</g>
</g>
</svg>
