<svg id="screens" xmlns="http://www.w3.org/2000/svg" viewBox="0 0 24 24"><defs><style>.cls-1{fill:#08a61a;}</style></defs><title>new_transactions24</title><polygon class="cls-1" points="22.5 2.93 21 2.93 18 2.93 18 4.43 21 4.43 22.5 14.93 1.5 14.93 3 4.43 6.5 4.43 6.5 2.93 1.5 2.93 1.5 2.93 0 14.8 0 23.93 24 23.93 24 14.83 22.5 2.93"/><path class="cls-1" d="M16.56,6.1a.76.76,0,0,0-1.09,0L13,8.63V.81C13,.36,12.45,0,12,0s-1,.36-1,.81V8.6L8.62,6.1a.77.77,0,0,0-1.1,0,.82.82,0,0,0,0,1.16l4.5,4.61,4.51-4.61a.82.82,0,0,0,0-1.16"/></svg>