<?xml version="1.0" encoding="utf-8"?>
<!-- Generator: Adobe Illustrator 21.1.0, SVG Export Plug-In . SVG Version: 6.00 Build 0)  -->
<svg version="1.1" id="Layer_1" xmlns="http://www.w3.org/2000/svg" xmlns:xlink="http://www.w3.org/1999/xlink" x="0px" y="0px"
	 viewBox="0 0 24 24" style="enable-background:new 0 0 24 24;" xml:space="preserve">
<style type="text/css">
	.st0{fill:#DF3324;}
	.st1{fill:#FFFFFF;}
</style>
<g id="Layer_2">
	<g id="Admin">
		<path class="st0" d="M24,12c0,6.6-5.4,12-12,12S0,18.6,0,12S5.4,0,12,0S24,5.4,24,12"/>
		<path class="st1" d="M16.3,17.3c-0.3,0-0.5-0.1-0.7-0.3L12,13.5L8.4,17c-0.4,0.4-1,0.4-1.4,0s-0.4-1,0-1.4l3.5-3.6L7,8.4
			C6.6,8.1,6.6,7.4,7,7c0,0,0,0,0,0c0.4-0.4,1-0.4,1.4,0c0,0,0,0,0,0l3.6,3.5L15.6,7c0.4-0.4,1-0.4,1.4,0c0,0,0,0,0,0
			c0.4,0.4,0.4,1,0.1,1.4c0,0,0,0-0.1,0.1L13.5,12l3.5,3.6c0.4,0.4,0.4,1,0,1.4c0,0,0,0,0,0C16.8,17.2,16.6,17.3,16.3,17.3z"/>
	</g>
</g>
</svg>
