<?xml version="1.0" encoding="utf-8"?>
<!-- Generator: Adobe Illustrator 21.1.0, SVG Export Plug-In . SVG Version: 6.00 Build 0)  -->
<svg version="1.1" id="Layer_1" xmlns="http://www.w3.org/2000/svg" xmlns:xlink="http://www.w3.org/1999/xlink" x="0px" y="0px"
	 viewBox="0 0 230 42.8" style="enable-background:new 0 0 230 42.8;" xml:space="preserve">
<style type="text/css">
	.st0{fill:#FFFFFF;}
</style>
<g>
	<g>
		<path class="st0" d="M29.4,20.8c0,6.8-3.9,14.1-14.4,14.1c-7.5,0-14.4-4.2-14.4-14.1c0-8.2,5.2-14.5,15.4-13.9
			C27,7.5,29.4,15.9,29.4,20.8z M9.9,15.6c-1,1.5-1.3,3.3-1.3,5.1c0,4.2,2.1,7.9,6.5,7.9c4.3,0,6.4-3.5,6.4-7.6
			c0-2.9-0.7-5.2-2.2-6.6c-1.6-1.5-3.5-1.6-4.6-1.5C12.4,13.2,11,14,9.9,15.6z"/>
		<path class="st0" d="M99.4,9.9c0.8-0.8,1.3-1.4,2.7-2.1c1.2-0.5,3-0.9,4.9-0.9c1.6,0,3.4,0.3,4.8,1c2.8,1.5,3.5,3.9,3.5,8v18.3
			h-7.8V19.1c0-2.4-0.1-3.3-0.4-4c-0.6-1.4-2-2.1-3.5-2.1c-4.2,0-4.2,3.3-4.2,6.7v14.5h-7.9V7.5h7.9V9.9z"/>
		<path class="st0" d="M87.7,27.3c-0.7,1.5-3.1,7.6-13.3,7.6c-7.9,0-13.5-4.9-13.5-13.6c0-6.5,3.2-14.4,13.7-14.4
			c1.6,0,6.2-0.2,9.6,3.5c3.5,3.7,3.7,9,3.8,12H68.9C68.8,25.7,70.7,29,75,29c4.3,0,5.8-2.8,6.8-4.7L87.7,27.3z M79.9,17.4
			c-0.2-1.1-0.4-2.6-1.5-3.8c-1-1-2.5-1.5-3.8-1.5c-1.9,0-3.2,0.9-4,1.7c-1.1,1.2-1.3,2.4-1.6,3.5H79.9z"/>
		<path class="st0" d="M197.5,13h5.2V7.5h-5.2V1.9h-7.8v5.6h-1.2l-3.6,5.5h4.8v12.7c0,2.6,0.1,4.5,1.1,6c1.7,2.5,4.7,2.6,7.4,2.6
			c1.4,0,2.5-0.2,4.2-0.4v-6.2l-2.8,0.1c-2.1,0-2.1-1.4-2.1-3V13z"/>
		<path class="st0" d="M119.2,1.9h7.8v5.6h8.2l-3.6,5.5H127v11.9c-0.1,1.6-0.1,3,2.1,3l2.8-0.1V34c-1.7,0.3-2.7,0.4-4.2,0.4
			c-2.7,0-5.7-0.2-7.4-2.6c-1.1-1.6-1.1-3.5-1.1-6V1.9z"/>
		<g>
			<path class="st0" d="M210,13h-1V8.3h-1.8V7.5h4.5v0.8H210V13z M217.6,13h-1l0-3.4l0.1-1.1l-0.3,0.9l-1.1,3.6h-0.9l-1.1-3.6
				L213,8.5l0.1,1.1l0,3.4h-0.9V7.5h1.3l1.4,4.4l1.4-4.4h1.3V13z"/>
		</g>
		<path class="st0" d="M159.9,27.3l-1.5,2.3c-1.4,2.1-4.1,5.2-11.6,5.2c-7.9,0-13.3-4.9-13.3-13.6c0-6.5,3.2-14.4,13.7-14.4
			c1.6,0,6.2-0.2,9.6,3.5c3.5,3.7,3.7,9,3.8,12h-19.1c-0.1,3.3,1.6,6.7,5.9,6.7c4.3,0,5.5-2.8,6.5-4.7L159.9,27.3z M152.5,17.4
			c-0.2-1.1-0.4-2.6-1.5-3.8c-1-1-2.5-1.5-3.8-1.5c-1.9,0-3.2,0.9-4,1.7c-1.1,1.2-1.3,2.4-1.6,3.5H152.5z"/>
		<polygon class="st0" points="186.7,34.2 176.9,20.2 185.1,7.5 176.1,7.5 172.3,13.5 168.1,7.5 159.1,7.5 168,20.2 158.9,34.2 
			167.8,34.2 172.6,26.8 177.8,34.2 		"/>
		<path class="st0" d="M40.3,9.9c0.8-1.1,3.2-3,7-3c6.6,0,11.2,5,11.2,13.9c0,5.5-2,14.1-11.5,14.1c-3.4,0-6.1-1.9-6.7-3v11.2h-7.9
			V7.5h7.9V9.9z M45.6,13c-1.4,0-2.9,0.6-4,2c-1.1,1.4-1.6,3.5-1.6,5.9c0,3.1,0.9,5.1,1.9,6.2c0.9,1,2.3,1.6,3.5,1.6
			c3.8,0,5.5-4,5.5-8c0-3.3-1-6.8-4.2-7.5C46.3,13,46,13,45.6,13z"/>
	</g>
	<rect x="229.3" y="0.3" class="st0" width="1.4" height="41.7"/>
</g>
</svg>
