<svg id="Layer_1" data-name="Layer 1" xmlns="http://www.w3.org/2000/svg" viewBox="0 0 22 22"><title>status_inprogress22</title><path d="M11,20.17A9.17,9.17,0,1,1,20.17,11,9.19,9.19,0,0,1,11,20.17Z" style="fill:#fff"/><path d="M11,2.75A8.25,8.25,0,1,1,2.75,11,8.26,8.26,0,0,1,11,2.75M11,.92A10.08,10.08,0,1,0,21.08,11,10.09,10.09,0,0,0,11,.92Z" style="fill:#fff"/><path d="M11,1.83A9.17,9.17,0,1,1,1.83,11,9.19,9.19,0,0,1,11,1.83m0-.91A10.08,10.08,0,1,0,21.08,11,10.08,10.08,0,0,0,11,.92Z" style="fill:#e08e18"/><path d="M13.71,13.56a.63.63,0,0,1-.55.32.62.62,0,0,1-.32-.09L10,12.14V7.71a.63.63,0,0,1,.63-.63h0a.63.63,0,0,1,.63.63v3.7l2.26,1.3a.62.62,0,0,1,.24.85Z" style="fill:#e08e18"/><path d="M4.67,14.78a.94.94,0,0,1-.84-.53,7.87,7.87,0,1,1,15-3.25A.92.92,0,1,1,17,11,6,6,0,1,0,5.5,13.49a.91.91,0,0,1-.45,1.21A.87.87,0,0,1,4.67,14.78Z" style="fill:#e08e18"/><polygon points="20.01 10.05 17.88 12.93 15.81 10.03 20.01 10.05" style="fill:#e08e18"/><path d="M10.87,18.58a.64.64,0,0,1-.63-.65h0a.63.63,0,0,1,.65-.61h0a.62.62,0,0,1,.61.64h0a.62.62,0,0,1-.62.62h0Zm1.94-.84a.62.62,0,0,1,.37-.81h0a.61.61,0,0,1,.8.37h0a.64.64,0,0,1-.37.82h0a.78.78,0,0,1-.22,0h0A.6.6,0,0,1,12.81,17.74ZM8.14,18a.63.63,0,0,1-.35-.82h0a.61.61,0,0,1,.82-.34h0a.62.62,0,0,1,.35.81H9a.63.63,0,0,1-.58.4h0A.64.64,0,0,1,8.14,18Zm7-1.38a.62.62,0,0,1,.05-.89h0a.61.61,0,0,1,.89.06h0a.62.62,0,0,1-.06.88h0a.61.61,0,0,1-.41.16h0A.64.64,0,0,1,15.12,16.64ZM5.8,16.51a.64.64,0,0,1,0-.89h0a.63.63,0,0,1,.89,0h0a.63.63,0,0,1,0,.89h0a.63.63,0,0,1-.46.19h0A.6.6,0,0,1,5.8,16.51Zm11.07-1.74a.64.64,0,0,1-.27-.85h0a.63.63,0,0,1,.85-.27h0a.63.63,0,0,1,.27.85h0a.63.63,0,0,1-.56.34h0A.65.65,0,0,1,16.87,14.77Z" style="fill:#e08e18"/><path d="M11,.92A10.08,10.08,0,1,1,.92,11,10.09,10.09,0,0,1,11,.92M11,0A11,11,0,1,0,22,11,11,11,0,0,0,11,0Z" style="fill:#fff"/></svg>