<?xml version="1.0" encoding="utf-8"?>
<!-- Generator: Adobe Illustrator 18.1.0, SVG Export Plug-In . SVG Version: 6.00 Build 0)  -->
<!DOCTYPE svg PUBLIC "-//W3C//DTD SVG 1.1//EN" "http://www.w3.org/Graphics/SVG/1.1/DTD/svg11.dtd">
<svg version="1.1" id="Layer_1" xmlns="http://www.w3.org/2000/svg" xmlns:xlink="http://www.w3.org/1999/xlink" x="0px" y="0px"
	 viewBox="0 0 108 108" enable-background="new 0 0 108 108" xml:space="preserve">
<path fill="#FFFFFF" d="M54.111,2.385c28.429,0,51.557,23.129,51.557,51.557S82.54,105.5,54.111,105.5S2.554,82.371,2.554,53.943
	S25.682,2.385,54.111,2.385 M54.111,0.885c-29.303,0-53.057,23.755-53.057,53.057S24.808,107,54.111,107
	s53.057-23.755,53.057-53.057S83.414,0.885,54.111,0.885L54.111,0.885z"/>
<g>
	<path fill="#FFFFFF" d="M85.946,37.428c0-1.778-1.441-3.22-3.22-3.22H55.968c-0.741,0-1.459-0.256-2.034-0.724l-5.468-4.455
		c-0.574-0.468-1.293-0.724-2.034-0.724H28.528c-1.778,0-3.22,1.441-3.22,3.22V73.65h60.637V37.428z"/>
</g>
</svg>
