<?xml version="1.0" encoding="utf-8"?>
<!-- Generator: Adobe Illustrator 22.0.1, SVG Export Plug-In . SVG Version: 6.00 Build 0)  -->
<svg version="1.1" id="Layer_1" xmlns="http://www.w3.org/2000/svg" xmlns:xlink="http://www.w3.org/1999/xlink" x="0px" y="0px"
	 viewBox="0 0 36 36" style="enable-background:new 0 0 36 36;" xml:space="preserve">
<style type="text/css">
	.st0{fill:#4F3690;}
	.st1{fill:#FFFFFF;}
	.st2{opacity:0.6;}
	.st3{opacity:0.6;fill:#FFFFFF;}
</style>
<circle class="st0" cx="18" cy="18" r="17.5"/>
<path class="st1" d="M18,1c9.4,0,17,7.6,17,17s-7.6,17-17,17S1,27.4,1,18S8.6,1,18,1 M18,0C8.1,0,0,8.1,0,18s8.1,18,18,18
	s18-8.1,18-18S27.9,0,18,0z"/>
<g>
	<g class="st2">
		<path class="st1" d="M17,19.7L17,19.7c-0.1-1.6-1.2-2.8-2.8-3.1h-0.1c-0.4-0.1-0.8-0.2-1.2-0.3c-0.2-0.1-0.4-0.2-0.5-0.4
			c-0.1-0.1-0.1-0.2-0.2-0.3l-0.1-0.2l0.1-0.1c0.2-0.2,0.5-0.4,0.6-0.7c0.3-0.4,0.4-0.9,0.5-1.4v-0.1h0.1c0.1,0,0.2-0.1,0.2-0.2
			c0.1-0.2,0.2-0.4,0.3-0.6c0-0.2,0-0.5-0.1-0.7l-0.1-0.1v-0.1v-0.1c0.1-0.3,0.1-0.6,0.1-0.9c0-0.4-0.1-0.7-0.2-1.1
			c-0.2-0.5-0.5-1-0.9-1.3c-0.6-0.4-1.4-0.7-2.1-0.7h-0.1C9.8,7.3,9,7.6,8.4,8c-0.5,0.3-0.8,0.8-1,1.3C7.3,9.7,7.3,10,7.2,10.4
			c0,0.3,0,0.6,0,0.9v0.1v0.1v0.1c-0.1,0.2-0.1,0.5-0.1,0.7c0,0.2,0.1,0.4,0.2,0.5c0,0.1,0.1,0.1,0.2,0.2h0.2v0.1
			c0.1,0.5,0.3,1,0.5,1.4c0.2,0.3,0.4,0.5,0.6,0.7L9,15.4l0,0.2c-0.1,0.1-0.1,0.2-0.2,0.3c-0.1,0.2-0.3,0.3-0.5,0.4
			c-0.4,0.2-0.8,0.3-1.2,0.3H6.9c-1.5,0.3-2.7,1.5-2.8,3.1l0,0c0,0.1,0,0.2,0,0.3v0.7c0,0.6,0.5,1.1,1.1,1.1h10.6
			c0.6,0,1.1-0.5,1.1-1.1V20C17,19.9,17,19.8,17,19.7z"/>
	</g>
	<path class="st3" d="M31.8,19.7c-0.1-1.6-1.2-2.9-2.8-3.1h-0.1c-0.4-0.1-0.8-0.2-1.2-0.3c-0.2-0.1-0.4-0.2-0.5-0.4
		c-0.1-0.1-0.1-0.2-0.2-0.3l-0.1-0.2l0.2-0.1c0.2-0.2,0.5-0.4,0.6-0.7c0.3-0.4,0.4-0.9,0.5-1.4V13h0.2c0.1,0,0.2-0.1,0.2-0.2
		c0.1-0.2,0.2-0.3,0.2-0.5c0.1-0.2,0-0.5-0.1-0.7l0-0.1v-0.1v-0.1c0.1-0.3,0.1-0.6,0-0.9c0-0.4-0.1-0.7-0.2-1.1
		c-0.2-0.5-0.5-1-1-1.3c-0.6-0.4-1.4-0.7-2.1-0.7h-0.1c-0.7,0-1.4,0.2-2,0.6c-0.5,0.3-0.8,0.8-1,1.3c-0.1,0.4-0.1,0.7-0.2,1.1
		c0,0.3,0,0.6,0,0.9v0.1v0.1v0.1C22,11.9,22,12.1,22,12.3c0,0.2,0.1,0.4,0.2,0.5c0,0.1,0.1,0.1,0.2,0.2h0.1v0.1
		c0.1,0.5,0.3,1,0.5,1.4c0.2,0.3,0.4,0.5,0.6,0.7l0.2,0.1l-0.1,0.2c-0.1,0.1-0.1,0.2-0.2,0.3c-0.1,0.2-0.3,0.3-0.5,0.4
		c-0.4,0.2-0.8,0.3-1.2,0.3h-0.1c-1.5,0.3-2.7,1.6-2.7,3.1c0,0.1,0,0.2,0,0.3v0l1-1l0.8,0.8c0.2-0.1,0.4-0.2,0.6-0.2v-1.1h3.5v1.1
		c0.2,0.1,0.4,0.1,0.6,0.2l0.8-0.8l2.5,2.5l-0.3,0.3h2.3c0.6,0,1.1-0.5,1.1-1.1V20C31.8,19.9,31.8,19.8,31.8,19.7z"/>
	<g>
		<path class="st1" d="M27.3,23.9c-0.1-0.6-0.4-1.3-0.7-1.8l0.6-0.6l-1-1l-0.6,0.6c-0.5-0.4-1.1-0.6-1.8-0.7v-0.9h-1.4v0.9
			c-0.6,0.1-1.2,0.4-1.8,0.7L20,20.5l-1,1l0.6,0.6c-0.4,0.5-0.6,1.1-0.7,1.8h-0.9v1.4H19c0.1,0.6,0.4,1.3,0.7,1.8l-0.6,0.6l1,1
			l0.6-0.6c0.5,0.4,1.1,0.6,1.8,0.7v0.9h1.4v-0.9c0.6-0.1,1.2-0.4,1.7-0.8l0.6,0.6l1-1L26.6,27c0.4-0.5,0.6-1.1,0.7-1.8h0.9v-1.3
			H27.3z M26.1,24.6c0,1.6-1.3,2.9-2.9,2.9c0,0,0,0,0,0c-1.6,0-2.9-1.3-2.9-2.9c0-1.6,1.3-2.9,2.9-2.9C24.8,21.7,26.1,23,26.1,24.6
			C26.1,24.6,26.1,24.6,26.1,24.6z"/>
		<path class="st1" d="M18.4,22.3l-0.8-0.8L20,19l0,0c0.1-0.1,0.3-0.3,0.4-0.5c0.3-0.5,0.5-1,0.6-1.5v-0.2h0.2
			c0.1,0,0.2-0.1,0.2-0.2c0.1-0.2,0.2-0.3,0.2-0.5c0.1-0.2,0-0.5-0.1-0.7l0-0.1v-0.1v-0.1c0-0.3,0-0.7,0-1c0-0.4,0-0.8-0.1-1.2
			c-0.2-0.6-0.5-1.1-1-1.4c-0.7-0.5-1.4-0.7-2.2-0.7H18c-0.8,0-1.6,0.2-2.2,0.7c-0.5,0.3-0.8,0.8-1,1.4c-0.1,0.4-0.2,0.8-0.2,1.2
			c0,0.3,0,0.7,0.1,1v0.1v0.1l-0.1,0.1c-0.1,0.2-0.1,0.5-0.1,0.7c0,0.2,0.1,0.4,0.2,0.5c0,0.1,0.1,0.2,0.2,0.2h0.2v0.2
			c0.1,0.5,0.3,1,0.6,1.5c0.2,0.3,0.4,0.5,0.6,0.8l0.2,0.1l-0.1,0.2c-0.1,0.1-0.1,0.2-0.2,0.3c-0.1,0.2-0.3,0.3-0.5,0.4
			c-0.4,0.2-0.9,0.3-1.3,0.3c-0.6,0.1-1.2,0.2-1.7,0.5c-0.5,0.2-0.8,0.6-1,1.1c-0.2,0.6-0.3,1.1-0.3,1.7c0,0.1,0,0.2,0,0.3V25
			c0,0.7,0.5,1.2,1.2,1.2H17v-3.4h1.1C18.2,22.6,18.3,22.5,18.4,22.3z"/>
	</g>
</g>
</svg>
