<svg id="Layer_1" data-name="Layer 1" xmlns="http://www.w3.org/2000/svg" viewBox="0 0 320.74 32"><title>header_trading_grid_online</title><rect x="128" y="3" width="1" height="23"/><path d="M141.49,8.53h-5V6.81h11.86V8.53h-4.95V21.81h-1.95Z"/><path d="M148.32,11h1.81v1.68a4.47,4.47,0,0,1,1.42-1.39,3.42,3.42,0,0,1,1.75-.48,5.14,5.14,0,0,1,1,.08l-.23,1.7-.42-.07a3.23,3.23,0,0,0-.46,0,3.15,3.15,0,0,0-1,.18,2.86,2.86,0,0,0-1,.6,3.06,3.06,0,0,0-.72.92,2.77,2.77,0,0,0-.26,1.22v6.45h-1.83Z"/><path d="M162.77,20.31a5.19,5.19,0,0,1-1.49,1.23,4.43,4.43,0,0,1-2.25.52,5.39,5.39,0,0,1-1.5-.2,3.39,3.39,0,0,1-1.18-.61,2.68,2.68,0,0,1-.76-1,3.35,3.35,0,0,1-.28-1.43,3.09,3.09,0,0,1,.48-1.8,3.21,3.21,0,0,1,1.26-1.1,6.23,6.23,0,0,1,1.77-.56,16.77,16.77,0,0,1,2-.21l1.87-.07v-.42a2.82,2.82,0,0,0-.59-2,2.55,2.55,0,0,0-1.91-.61,3.31,3.31,0,0,0-1.91.43,2,2,0,0,0-.8,1.19l-1.66-.19a3.11,3.11,0,0,1,1.41-2.18,5.8,5.8,0,0,1,3-.68,6,6,0,0,1,2,.29,3.34,3.34,0,0,1,1.32.8,3.15,3.15,0,0,1,.72,1.31,6.23,6.23,0,0,1,.22,1.74v7.06h-1.76Zm0-3.94-1.75.06a10.52,10.52,0,0,0-1.84.21,3.57,3.57,0,0,0-1.17.45,1.57,1.57,0,0,0-.61.7,2.47,2.47,0,0,0-.18,1,1.76,1.76,0,0,0,.5,1.31,2.21,2.21,0,0,0,1.62.5,3.68,3.68,0,0,0,2.52-.8,2.78,2.78,0,0,0,.91-2.19Z"/><path d="M175.22,20.25a5,5,0,0,1-1.56,1.4,4.18,4.18,0,0,1-2.08.49,4.58,4.58,0,0,1-2.07-.44,4,4,0,0,1-1.44-1.21,5.29,5.29,0,0,1-.83-1.81,8.56,8.56,0,0,1-.28-2.25A8,8,0,0,1,167.3,14a5.29,5.29,0,0,1,.95-1.83A4.12,4.12,0,0,1,169.77,11a5,5,0,0,1,2-.4,4.7,4.7,0,0,1,1.74.35,4,4,0,0,1,1.64,1.31V6.81H177v15h-1.78Zm0-4.2a5.75,5.75,0,0,0-.29-2A2.84,2.84,0,0,0,174,12.8a2.71,2.71,0,0,0-.94-.53,3.39,3.39,0,0,0-1-.15,3.47,3.47,0,0,0-1.25.23,2.59,2.59,0,0,0-1,.75,3.82,3.82,0,0,0-.68,1.32,7,7,0,0,0-.24,2,6.47,6.47,0,0,0,.27,2,3.52,3.52,0,0,0,.69,1.31,2.52,2.52,0,0,0,1,.69,3,3,0,0,0,1.11.21,3.68,3.68,0,0,0,1.09-.15,3.16,3.16,0,0,0,1-.5,3.31,3.31,0,0,0,1-1.26,4.81,4.81,0,0,0,.33-1.91Z"/><path d="M179.83,6.81h1.95V8.93h-1.95Zm.06,4.14h1.83V21.81h-1.83Z"/><path d="M184.6,11h1.81v1.66a4.84,4.84,0,0,1,1.76-1.54,4.76,4.76,0,0,1,2-.46,3.49,3.49,0,0,1,2.74,1,4.36,4.36,0,0,1,.89,3v7.23H192V14.94a3.25,3.25,0,0,0-.54-2.13,2.12,2.12,0,0,0-1.68-.62,3.63,3.63,0,0,0-1.21.21,2.92,2.92,0,0,0-1.08.67,3.42,3.42,0,0,0-.8,1,2.83,2.83,0,0,0-.27,1.33v6.43H184.6Z"/><path d="M198.39,22.81a2.19,2.19,0,0,0,.9,1.41,4,4,0,0,0,2.07.42,2.69,2.69,0,0,0,2.38-1,4.86,4.86,0,0,0,.66-2.78V19.75a4.47,4.47,0,0,1-1.52,1.36,4.36,4.36,0,0,1-2.09.48,4.66,4.66,0,0,1-2-.42A4,4,0,0,1,197.3,20a5.18,5.18,0,0,1-.85-1.73,7.65,7.65,0,0,1-.28-2.12,7.3,7.3,0,0,1,.33-2.26,5.07,5.07,0,0,1,1-1.74A4.35,4.35,0,0,1,199,11a5,5,0,0,1,2-.4,4.74,4.74,0,0,1,1.79.37,3.93,3.93,0,0,1,1.63,1.35V11h1.81V20a14.84,14.84,0,0,1-.2,2.53,4.89,4.89,0,0,1-.74,1.91,3.35,3.35,0,0,1-1.48,1.21,6,6,0,0,1-2.43.42,6.28,6.28,0,0,1-3.36-.77,3.22,3.22,0,0,1-1.43-2.53ZM204.44,16a5.5,5.5,0,0,0-.25-1.8A3.23,3.23,0,0,0,203.5,13a2.7,2.7,0,0,0-1-.67,3.79,3.79,0,0,0-1.21-.2,3.65,3.65,0,0,0-1.25.22,2.7,2.7,0,0,0-1,.71,3.41,3.41,0,0,0-.67,1.24,6,6,0,0,0-.24,1.82,5.81,5.81,0,0,0,.26,1.85,3.55,3.55,0,0,0,.69,1.22,2.39,2.39,0,0,0,1,.67,3.18,3.18,0,0,0,1.13.21,3.5,3.5,0,0,0,1.31-.23,2.79,2.79,0,0,0,1-.69,3.36,3.36,0,0,0,.69-1.17,4.85,4.85,0,0,0,.25-1.65Z"/><path d="M220.55,14.1h5.61v6a7.07,7.07,0,0,1-1.25.92,9.22,9.22,0,0,1-1.43.65,10.09,10.09,0,0,1-1.53.39,10.31,10.31,0,0,1-1.55.12,7.61,7.61,0,0,1-3-.53,5.79,5.79,0,0,1-2.18-1.55,6.67,6.67,0,0,1-1.36-2.46,11.27,11.27,0,0,1-.46-3.31A10.51,10.51,0,0,1,214,11a7.36,7.36,0,0,1,1.4-2.48A6,6,0,0,1,217.48,7a6.89,6.89,0,0,1,2.71-.53,7.24,7.24,0,0,1,2.23.31,4.81,4.81,0,0,1,1.65.87A4.87,4.87,0,0,1,225.19,9a6.84,6.84,0,0,1,.67,1.76L224,11a5.43,5.43,0,0,0-.45-1.19,3.22,3.22,0,0,0-.72-.94,3.15,3.15,0,0,0-1.08-.6,5.05,5.05,0,0,0-1.55-.21,4.5,4.5,0,0,0-2.06.45,4.26,4.26,0,0,0-1.47,1.27,6,6,0,0,0-.89,2,9.92,9.92,0,0,0-.3,2.53,10.47,10.47,0,0,0,.29,2.53,5.54,5.54,0,0,0,.91,2,4.12,4.12,0,0,0,1.55,1.26,4.9,4.9,0,0,0,2.18.44,8.07,8.07,0,0,0,2.13-.27,5.36,5.36,0,0,0,1.8-.86V15.78h-3.78Z"/><path d="M229,11h1.8v1.68a4.6,4.6,0,0,1,1.43-1.39,3.42,3.42,0,0,1,1.75-.48,5.22,5.22,0,0,1,1,.08l-.23,1.7-.42-.07a3.23,3.23,0,0,0-.46,0,3.15,3.15,0,0,0-1,.18,2.86,2.86,0,0,0-1,.6,2.78,2.78,0,0,0-.72.92,2.64,2.64,0,0,0-.26,1.22v6.45H229Z"/><path d="M236.76,6.81h2V8.93h-2Zm.06,4.14h1.83V21.81h-1.83Z"/><path d="M249.37,20.25a5.11,5.11,0,0,1-1.55,1.4,4.18,4.18,0,0,1-2.08.49,4.58,4.58,0,0,1-2.07-.44,4,4,0,0,1-1.44-1.21,5.12,5.12,0,0,1-.84-1.81,9,9,0,0,1-.27-2.25,8.35,8.35,0,0,1,.33-2.43,5.48,5.48,0,0,1,1-1.83A4.09,4.09,0,0,1,243.92,11a5,5,0,0,1,2-.4,4.78,4.78,0,0,1,1.74.35,4,4,0,0,1,1.64,1.31V6.81h1.83v15h-1.79Zm0-4.2a5.78,5.78,0,0,0-.28-2,2.78,2.78,0,0,0-.94-1.22,2.67,2.67,0,0,0-.93-.53,3.59,3.59,0,0,0-2.29.08,2.7,2.7,0,0,0-1,.75,3.64,3.64,0,0,0-.67,1.32,7,7,0,0,0-.24,2,6.81,6.81,0,0,0,.26,2,3.84,3.84,0,0,0,.69,1.31,2.56,2.56,0,0,0,1,.69,3,3,0,0,0,1.1.21,3.75,3.75,0,0,0,1.1-.15,3.16,3.16,0,0,0,1-.5,3.31,3.31,0,0,0,1-1.26,5,5,0,0,0,.32-1.91Z"/><path d="M265.31,22.18a7.42,7.42,0,0,1-2.8-.51,6,6,0,0,1-2.19-1.51,7,7,0,0,1-1.42-2.47,10.51,10.51,0,0,1-.5-3.36,10.23,10.23,0,0,1,.51-3.36,7.25,7.25,0,0,1,1.43-2.48A6,6,0,0,1,262.53,7a7.68,7.68,0,0,1,5.58,0,5.94,5.94,0,0,1,2.18,1.51,7,7,0,0,1,1.4,2.46,10.12,10.12,0,0,1,.51,3.35,10.61,10.61,0,0,1-.5,3.37,7.16,7.16,0,0,1-1.39,2.49,6,6,0,0,1-2.18,1.53A7.27,7.27,0,0,1,265.31,22.18Zm0-1.68a4.71,4.71,0,0,0,2.11-.44,4,4,0,0,0,1.52-1.25,5.7,5.7,0,0,0,.93-1.95,9.58,9.58,0,0,0,.31-2.55,9.48,9.48,0,0,0-.31-2.53,5.81,5.81,0,0,0-.94-2,4.3,4.3,0,0,0-1.52-1.26,4.77,4.77,0,0,0-2.1-.44,4.91,4.91,0,0,0-2.13.44,4.25,4.25,0,0,0-1.53,1.26,5.45,5.45,0,0,0-.93,2,9.92,9.92,0,0,0-.3,2.53,10,10,0,0,0,.3,2.55,5.67,5.67,0,0,0,.91,1.95,4.12,4.12,0,0,0,1.53,1.25A4.8,4.8,0,0,0,265.31,20.5Z"/><path d="M274.85,11h1.81v1.66a4.84,4.84,0,0,1,1.76-1.54,4.76,4.76,0,0,1,2-.46,3.49,3.49,0,0,1,2.74,1,4.36,4.36,0,0,1,.89,3v7.23h-1.83V14.94a3.25,3.25,0,0,0-.54-2.13,2.12,2.12,0,0,0-1.68-.62,3.63,3.63,0,0,0-1.21.21,2.92,2.92,0,0,0-1.08.67,3.42,3.42,0,0,0-.8,1,2.83,2.83,0,0,0-.27,1.33v6.43h-1.83Z"/><path d="M286.92,6.81h1.83v15h-1.83Z"/><path d="M291.58,6.81h2V8.93h-2Zm.07,4.14h1.82V21.81h-1.82Z"/><path d="M296.36,11h1.8v1.66a4.5,4.5,0,0,1,3.8-2,3.48,3.48,0,0,1,2.74,1,4.31,4.31,0,0,1,.9,3v7.23h-1.83V14.94a3.19,3.19,0,0,0-.55-2.13,2.09,2.09,0,0,0-1.68-.62,3.67,3.67,0,0,0-1.21.21,3,3,0,0,0-1.08.67,3.6,3.6,0,0,0-.8,1,2.83,2.83,0,0,0-.27,1.33v6.43h-1.82Z"/><path d="M317.71,18.76a3.89,3.89,0,0,1-1.39,2.48,5.07,5.07,0,0,1-3.23.9,4.8,4.8,0,0,1-3.8-1.5A6.14,6.14,0,0,1,308,16.45a7.42,7.42,0,0,1,.38-2.5,5,5,0,0,1,1.06-1.83A4.49,4.49,0,0,1,311,11a5.36,5.36,0,0,1,2.06-.39,5.49,5.49,0,0,1,2.17.4,4.13,4.13,0,0,1,1.48,1.1,4.81,4.81,0,0,1,.86,1.67,7.5,7.5,0,0,1,.28,2.12v.93h-8.06a5,5,0,0,0,.22,1.52,3.45,3.45,0,0,0,.63,1.22,2.91,2.91,0,0,0,1,.81,3.24,3.24,0,0,0,1.4.29,3.18,3.18,0,0,0,2-.51,2.65,2.65,0,0,0,.86-1.4Zm-1.66-3.3a5.55,5.55,0,0,0-.16-1.4,3.17,3.17,0,0,0-.53-1.09,2.4,2.4,0,0,0-.92-.7,3.35,3.35,0,0,0-1.37-.25,2.92,2.92,0,0,0-2.26.88,4.3,4.3,0,0,0-.95,2.56Z"/><path d="M17.06,14.56c0,3.78-2.17,7.87-8,7.87-4.21,0-8-2.35-8-7.87C1,10,3.89,6.45,9.62,6.77,15.72,7.11,17.06,11.84,17.06,14.56ZM6.18,11.68a5.22,5.22,0,0,0-.74,2.85C5.44,16.85,6.58,19,9.05,19S12.6,17,12.6,14.73a4.86,4.86,0,0,0-1.23-3.66,3.24,3.24,0,0,0-2.58-.81A3,3,0,0,0,6.18,11.68Z"/><path d="M56.15,8.46a4.32,4.32,0,0,1,1.49-1.18,7.4,7.4,0,0,1,2.72-.51A5.65,5.65,0,0,1,63,7.34c1.57.83,2,2.18,2,4.5V22.06H60.61V13.64a5.8,5.8,0,0,0-.2-2.23,2,2,0,0,0-2-1.15c-2.32,0-2.32,1.86-2.32,3.72v8.08H51.71V7.14h4.44Z"/><path d="M49.61,18.2c-.4.85-1.7,4.23-7.44,4.23-4.44,0-7.56-2.71-7.56-7.61,0-3.61,1.78-8,7.67-8a6.9,6.9,0,0,1,5.39,2c1.94,2.09,2.06,5,2.12,6.7H39.11a3.36,3.36,0,0,0,3.4,3.72,3.94,3.94,0,0,0,3.78-2.63Zm-4.38-5.53a3.52,3.52,0,0,0-.83-2.12,3.1,3.1,0,0,0-2.14-.83,3,3,0,0,0-2.24,1,3.86,3.86,0,0,0-.88,2Z"/><path d="M110.93,10.24h2.92V7.14H111V4h-4.38V7.14h-.69l-2,3.1h2.7v7.09a5.77,5.77,0,0,0,.63,3.38c1,1.38,2.61,1.46,4.13,1.46a13.46,13.46,0,0,0,2.32-.23V18.51l-1.58.06c-1.17,0-1.17-.78-1.14-1.69Z"/><path d="M67.19,4h4.38V7.14h4.55l-2,3.1H71.54v6.64c0,.91,0,1.69,1.15,1.69l1.57-.06v3.43a13.37,13.37,0,0,1-2.32.23c-1.52,0-3.18-.08-4.12-1.46a5.77,5.77,0,0,1-.63-3.38Z"/><path d="M117.91,10.24h-.55V7.6h-1V7.14h2.52V7.6h-1Zm4.24,0h-.53l0-1.91,0-.64-.15.52-.64,2h-.48l-.63-2-.16-.51,0,.63,0,1.91h-.52V7.14h.73l.78,2.45.75-2.45h.74Z"/><path d="M89.93,18.21l-.84,1.3c-.79,1.15-2.27,2.92-6.5,2.92-4.44,0-7.42-2.71-7.42-7.61,0-3.61,1.78-8,7.68-8a6.89,6.89,0,0,1,5.38,2c2,2.09,2.06,5,2.12,6.7H79.67c0,1.86.89,3.72,3.27,3.72s3.09-1.57,3.64-2.63Zm-4.14-5.54A3.52,3.52,0,0,0,85,10.55a3.1,3.1,0,0,0-2.14-.83,3,3,0,0,0-2.24,1,3.86,3.86,0,0,0-.88,2Z"/><polygon points="104.94 22.06 99.46 14.21 104.03 7.14 99.01 7.14 96.86 10.48 94.53 7.14 89.52 7.14 94.44 14.21 89.37 22.06 94.38 22.06 97.05 17.94 99.92 22.06 104.94 22.06"/><path d="M23.12,8.46A4.79,4.79,0,0,1,27,6.77c3.67,0,6.25,2.78,6.25,7.76,0,3.06-1.12,7.9-6.43,7.9a4.78,4.78,0,0,1-3.77-1.69V27H18.68V7.14h4.44Zm3,1.75a2.82,2.82,0,0,0-2.26,1.12,5.25,5.25,0,0,0-.92,3.28A5.05,5.05,0,0,0,24,18.05a2.72,2.72,0,0,0,2,.9c2.15,0,3.09-2.26,3.09-4.45,0-1.84-.54-3.78-2.35-4.21A2.47,2.47,0,0,0,26.1,10.21Z"/></svg>