<?xml version="1.0" encoding="utf-8"?>
<!-- Generator: Adobe Illustrator 20.1.0, SVG Export Plug-In . SVG Version: 6.00 Build 0)  -->
<svg version="1.1" id="Layer_1" xmlns="http://www.w3.org/2000/svg" xmlns:xlink="http://www.w3.org/1999/xlink" x="0px" y="0px"
	 viewBox="0 0 32 32" style="enable-background:new 0 0 32 32;" xml:space="preserve">
<style type="text/css">
	.st0{fill:#7B9AB0;}
</style>
<title>Asset 6</title>
<g id="Layer_2">
	<g id="Layer_1-2">
		<path class="st0" d="M27.5,8h-23c-0.6,0-1-0.4-1-1s0.4-1,1-1h23c0.6,0,1,0.4,1,1S28.1,8,27.5,8z"/>
		<path class="st0" d="M27.5,17h-23c-0.6,0-1-0.4-1-1c0-0.6,0.4-1,1-1h23c0.6,0,1,0.4,1,1C28.5,16.6,28.1,17,27.5,17z"/>
		<path class="st0" d="M27.5,26h-23c-0.6,0-1-0.4-1-1s0.4-1,1-1h23c0.6,0,1,0.4,1,1S28.1,26,27.5,26z"/>
	</g>
</g>
</svg>
