<?xml version="1.0" encoding="utf-8"?>
<!-- Generator: Adobe Illustrator 19.1.0, SVG Export Plug-In . SVG Version: 6.00 Build 0)  -->
<svg version="1.1" id="Layer_1" xmlns="http://www.w3.org/2000/svg" xmlns:xlink="http://www.w3.org/1999/xlink" x="0px" y="0px"
	 viewBox="0 0 24 24" style="enable-background:new 0 0 24 24;" xml:space="preserve">
<style type="text/css">
	.st0{fill:#333333;}
	.st1{fill:#333333;stroke:#333333;stroke-width:0.25;stroke-miterlimit:10;}
</style>
<g>
	<path class="st0" d="M12,24C5.383,24,0,18.617,0,12S5.383,0,12,0s12,5.383,12,12S18.617,24,12,24z M12,0.96
		C5.913,0.96,0.96,5.913,0.96,12S5.913,23.04,12,23.04S23.04,18.087,23.04,12S18.087,0.96,12,0.96z"/>
</g>
<g>
	<path class="st1" d="M7.992,5.508c0.229-0.213,0.481-0.415,0.757-0.607C9.024,4.71,9.326,4.54,9.654,4.393
		c0.327-0.147,0.681-0.263,1.059-0.348s0.789-0.127,1.231-0.127c0.581,0,1.12,0.084,1.617,0.253c0.497,0.17,0.926,0.409,1.286,0.718
		c0.361,0.309,0.644,0.684,0.85,1.126s0.309,0.938,0.309,1.491c0,0.559-0.083,1.042-0.248,1.446
		c-0.166,0.405-0.376,0.76-0.629,1.066c-0.254,0.306-0.533,0.57-0.834,0.795c-0.302,0.224-0.583,0.436-0.844,0.635
		c-0.262,0.199-0.487,0.398-0.674,0.596c-0.188,0.199-0.296,0.419-0.325,0.662l-0.199,1.689h-1.347l-0.132-1.833v-0.121
		c0-0.309,0.082-0.583,0.248-0.823c0.166-0.239,0.375-0.463,0.629-0.673s0.526-0.419,0.818-0.629
		c0.291-0.21,0.562-0.442,0.817-0.696c0.254-0.254,0.464-0.543,0.629-0.867c0.166-0.323,0.248-0.706,0.248-1.147
		c0-0.317-0.063-0.604-0.188-0.862c-0.126-0.257-0.294-0.476-0.508-0.656c-0.214-0.181-0.465-0.319-0.756-0.414
		c-0.29-0.096-0.601-0.144-0.932-0.144c-0.449,0-0.834,0.055-1.154,0.166c-0.321,0.11-0.591,0.232-0.812,0.364
		c-0.22,0.132-0.399,0.254-0.535,0.365C9.142,6.534,9.03,6.589,8.942,6.589c-0.184,0-0.327-0.084-0.43-0.253L7.992,5.508z
		 M10.156,18.701c0-0.191,0.036-0.372,0.105-0.541c0.07-0.17,0.166-0.317,0.288-0.442c0.121-0.126,0.266-0.225,0.436-0.298
		c0.169-0.074,0.349-0.111,0.541-0.111c0.191,0,0.371,0.037,0.541,0.111c0.169,0.073,0.316,0.173,0.442,0.298
		c0.125,0.125,0.222,0.272,0.292,0.442c0.069,0.169,0.105,0.35,0.105,0.541c0,0.199-0.036,0.381-0.105,0.547
		c-0.07,0.165-0.168,0.31-0.292,0.436c-0.126,0.125-0.273,0.222-0.442,0.293c-0.17,0.069-0.35,0.105-0.541,0.105
		c-0.192,0-0.372-0.036-0.541-0.105c-0.17-0.07-0.315-0.168-0.436-0.293c-0.122-0.126-0.217-0.271-0.288-0.436
		C10.191,19.082,10.156,18.9,10.156,18.701z"/>
</g>
</svg>
