<svg xmlns="http://www.w3.org/2000/svg" xmlns:xlink="http://www.w3.org/1999/xlink" viewBox="0 0 24 24"><defs><clipPath id="clip-path"><rect x="-1688" y="-33.09" width="1440" height="814" style="fill:none"/></clipPath><linearGradient id="linear-gradient" x1="-3589.08" y1="460.17" x2="-3588.07" y2="460.17" gradientTransform="matrix(1428, -796, -796, -1428, 5489815.3, -2199006.3)" gradientUnits="userSpaceOnUse"><stop offset="0" stop-color="#090e2c"/><stop offset="0.18" stop-color="#09102f"/><stop offset="0.31" stop-color="#0b1439"/><stop offset="0.44" stop-color="#0d1d4a"/><stop offset="0.56" stop-color="#112861"/><stop offset="0.59" stop-color="#122c69"/><stop offset="0.69" stop-color="#122f6b"/><stop offset="0.77" stop-color="#113973"/><stop offset="0.84" stop-color="#0f4a80"/><stop offset="0.91" stop-color="#0c6191"/><stop offset="0.97" stop-color="#097fa8"/><stop offset="1" stop-color="#078db3"/></linearGradient></defs><title>icon_dropdown_mo</title><g id="Static"><polygon points="20.64 9.91 16.07 14.48 11.5 9.91 20.64 9.91" style="fill:#627783"/><path d="M22,5.91a1,1,0,0,1,1,1v10a1,1,0,0,1-1,1H2a1,1,0,0,1-1-1v-10a1,1,0,0,1,1-1H22m0-1H2a2,2,0,0,0-2,2v10a2,2,0,0,0,2,2H22a2,2,0,0,0,2-2v-10a2,2,0,0,0-2-2Z" style="fill:#627783"/></g><g id="Interaction_-_2" data-name="Interaction - 2"><g style="clip-path:url(#clip-path)"><polygon points="-2028.22 159.87 -589.37 -656.21 92.22 587.94 -1346.63 1404.03 -2028.22 159.87" style="fill:url(#linear-gradient)"/></g></g></svg>