<svg xmlns="http://www.w3.org/2000/svg" xmlns:xlink="http://www.w3.org/1999/xlink" viewBox="0 0 24 24"><defs><clipPath id="clip-path"><rect x="-1722" width="1440" height="814" style="fill:none"/></clipPath><linearGradient id="linear-gradient" x1="-3623.08" y1="493.27" x2="-3622.07" y2="493.27" gradientTransform="matrix(1428, -796, -796, -1428, 5564676.14, -2178778.96)" gradientUnits="userSpaceOnUse"><stop offset="0" stop-color="#090e2c"/><stop offset="0.18" stop-color="#09102f"/><stop offset="0.31" stop-color="#0b1439"/><stop offset="0.44" stop-color="#0d1d4a"/><stop offset="0.56" stop-color="#112861"/><stop offset="0.59" stop-color="#122c69"/><stop offset="0.69" stop-color="#122f6b"/><stop offset="0.77" stop-color="#113973"/><stop offset="0.84" stop-color="#0f4a80"/><stop offset="0.91" stop-color="#0c6191"/><stop offset="0.97" stop-color="#097fa8"/><stop offset="1" stop-color="#078db3"/></linearGradient></defs><title>icon_checkbox</title><g id="Static"><path d="M19,4a1,1,0,0,1,1,1V19a1,1,0,0,1-1,1H5a1,1,0,0,1-1-1V5A1,1,0,0,1,5,4H19m0-1H5A2,2,0,0,0,3,5V19a2,2,0,0,0,2,2H19a2,2,0,0,0,2-2V5a2,2,0,0,0-2-2Z" style="fill:#333"/><path d="M10.14,16.79,6.62,13.27A1,1,0,1,1,8,11.85L10.14,14l5.53-5.53a1,1,0,0,1,1.41,0,1,1,0,0,1,0,1.42Z" style="fill:#333"/></g><g id="interaction_-1" data-name="interaction -1"><path d="M10.14,16.79,6.62,13.27A1,1,0,1,1,8,11.85L10.14,14l5.53-5.53a1,1,0,0,1,1.41,0,1,1,0,0,1,0,1.42Z" style="fill:#333"/></g><g id="Interaction_-_2" data-name="Interaction - 2"><g style="clip-path:url(#clip-path)"><polygon points="-2062.22 192.97 -623.37 -623.12 58.22 621.03 -1380.63 1437.12 -2062.22 192.97" style="fill:url(#linear-gradient)"/></g></g></svg>