<svg xmlns="http://www.w3.org/2000/svg" viewBox="0 0 24 24"><title>icon_numeric</title><g id="Static"><path d="M22,6.25a1,1,0,0,1,1,1v10a1,1,0,0,1-1,1H2a1,1,0,0,1-1-1v-10a1,1,0,0,1,1-1H22m0-1H2a2,2,0,0,0-2,2v10a2,2,0,0,0,2,2H22a2,2,0,0,0,2-2v-10a2,2,0,0,0-2-2Z" style="fill:#333"/><path d="M5.38,9.77l-1.59,1-.38-.65L5.47,8.8h.81v6.91h-.9Z" style="fill:#333"/><path d="M9,15c.25-.23.53-.47.82-.72l.89-.78c.32-.28.6-.53.84-.77a5.05,5.05,0,0,0,.6-.66,2.47,2.47,0,0,0,.36-.65,2.08,2.08,0,0,0,.12-.71,1.18,1.18,0,0,0-1.29-1.3,2.25,2.25,0,0,0-.63.08,1.23,1.23,0,0,0-.44.23,1.24,1.24,0,0,0-.29.39,2.77,2.77,0,0,0-.21.54l-.83-.13a4.5,4.5,0,0,1,.25-.7,1.86,1.86,0,0,1,.44-.6,2,2,0,0,1,.7-.43,2.85,2.85,0,0,1,1-.17,2.73,2.73,0,0,1,.94.15,2.14,2.14,0,0,1,.69.41,1.87,1.87,0,0,1,.42.64,2.39,2.39,0,0,1,.14.82,2.84,2.84,0,0,1-.12.84,3.28,3.28,0,0,1-.39.77,5.48,5.48,0,0,1-.66.78c-.27.27-.58.56-.95.87l-.59.5-.6.52h3.38l-.13.8H9Z" style="fill:#333"/><path d="M16,13.8a1.52,1.52,0,0,0,.42,1,1.62,1.62,0,0,0,1.14.33,1.59,1.59,0,0,0,1.08-.34,1.32,1.32,0,0,0,.37-1,1.15,1.15,0,0,0-.37-1,1.68,1.68,0,0,0-1-.29h-.79v-.79h.82a1.25,1.25,0,0,0,.9-.31,1.23,1.23,0,0,0,.32-.91,1.06,1.06,0,0,0-.33-.83,1.59,1.59,0,0,0-1-.28,1.52,1.52,0,0,0-1,.28,1.68,1.68,0,0,0-.51.88l-.82-.13a2.66,2.66,0,0,1,.23-.67,1.79,1.79,0,0,1,.44-.58,2,2,0,0,1,.69-.41,3,3,0,0,1,1-.15,3.1,3.1,0,0,1,1,.14,1.94,1.94,0,0,1,.68.38,1.66,1.66,0,0,1,.41.58,1.73,1.73,0,0,1,.13.69,1.85,1.85,0,0,1-.24,1,1.8,1.8,0,0,1-.75.65,1.81,1.81,0,0,1,.88.67,1.91,1.91,0,0,1,.27,1,2.63,2.63,0,0,1-.14.86,1.76,1.76,0,0,1-.43.69,2.05,2.05,0,0,1-.73.45,2.93,2.93,0,0,1-1,.16,3,3,0,0,1-1.17-.19,2.19,2.19,0,0,1-.75-.5,1.58,1.58,0,0,1-.39-.67,2.77,2.77,0,0,1-.14-.73Z" style="fill:#333"/></g></svg>