<?xml version="1.0" encoding="utf-8"?>
<!-- Generator: Adobe Illustrator 21.1.0, SVG Export Plug-In . SVG Version: 6.00 Build 0)  -->
<svg version="1.1" id="Layer_1" xmlns="http://www.w3.org/2000/svg" xmlns:xlink="http://www.w3.org/1999/xlink" x="0px" y="0px"
	 viewBox="0 0 24 24" enable-background="new 0 0 24 24" xml:space="preserve">
<path fill="#333333" d="M22.308,20.515l-5.119-5.119c2.872-3.871,2.123-9.364-1.748-12.236S6.202,1.037,3.205,4.908
	s-2.123,9.364,1.748,12.236c3.121,2.372,7.367,2.372,10.488,0l5.119,5.119c0.499,0.499,1.373,0.375,1.748-0.125
	C22.683,21.639,22.683,21.015,22.308,20.515L22.308,20.515z M10.197,3.909c3.496,0,6.243,2.747,6.243,6.243
	s-2.747,6.243-6.243,6.243s-6.243-2.747-6.243-6.243S6.701,3.909,10.197,3.909z"/>
<g id="metadata">
</g>
</svg>
